<?xml version="1.0" encoding="utf-8"?>
<!-- Generator: Adobe Illustrator 24.1.1, SVG Export Plug-In . SVG Version: 6.00 Build 0)  -->
<svg version="1.1" id="Livello_1" xmlns="http://www.w3.org/2000/svg" xmlns:xlink="http://www.w3.org/1999/xlink" x="0px" y="0px"
	 viewBox="0 0 24 24" style="enable-background:new 0 0 24 24;" xml:space="preserve">
<g>
	<path d="M11.7,0C5.25,0,0,5.25,0,11.7v6.57c0,0.3,0.24,0.54,0.54,0.54s0.54-0.24,0.54-0.54V11.7c0-5.86,4.76-10.62,10.62-10.62
		S22.32,5.84,22.32,11.7v6.57c0,0.3,0.24,0.54,0.54,0.54c0.3,0,0.54-0.24,0.54-0.54V11.7C23.39,5.25,18.14,0,11.7,0z"/>
	<path d="M7.77,14.13H4.71c-1.34,0-2.43,1.09-2.43,2.43v4.99c0,1.33,1.08,2.41,2.41,2.43L7.76,24h0c0.3,0,0.54-0.24,0.54-0.54v-8.79
		C8.31,14.37,8.06,14.13,7.77,14.13z"/>
	<path d="M18.68,14.13h-2.46c-0.3,0-0.54,0.24-0.54,0.54v8.76c0,0.3,0.24,0.54,0.54,0.54h2.46c1.34,0,2.43-1.09,2.43-2.43v-4.98
		C21.11,15.22,20.02,14.13,18.68,14.13z"/>
</g>
</svg>
