<?xml version="1.0" encoding="utf-8"?>
<!-- Generator: Adobe Illustrator 24.1.1, SVG Export Plug-In . SVG Version: 6.00 Build 0)  -->
<svg version="1.1" id="Livello_1" xmlns="http://www.w3.org/2000/svg" xmlns:xlink="http://www.w3.org/1999/xlink" x="0px" y="0px"
	 viewBox="0 0 1691.31 229" style="enable-background:new 0 0 1691.31 229;" xml:space="preserve">
<style type="text/css">
	.st0{fill:#FFFFFF;}
</style>
<g>
	<path class="st0" d="M43.45,68.75c0-1.05,0.26-2.04,0.79-2.94c0.53-0.91,1.26-1.7,2.2-2.37c0.94-0.67,2.04-1.22,3.3-1.63
		c1.26-0.41,2.59-0.62,4-0.62c2.75,0,4.77,0.44,6.06,1.32c1.29,0.88,2.08,2.26,2.37,4.13c1,7.79,1.83,15.16,2.5,22.1
		c0.67,6.94,1.22,13.57,1.63,19.86c0.41,6.3,0.7,12.33,0.88,18.11c0.18,5.77,0.26,11.35,0.26,16.74c0,2.93-1.04,5.13-3.12,6.59
		c-2.08,1.46-5.11,2.2-9.1,2.2c-1.82,0-3.24-0.43-4.26-1.27c-1.03-0.85-1.54-2.09-1.54-3.74c0-10.08-0.31-19.53-0.92-28.34
		c-0.62-8.82-1.3-16.66-2.07-23.51c-0.76-6.86-1.45-12.58-2.07-17.18C43.76,73.6,43.45,70.45,43.45,68.75z"/>
	<path class="st0" d="M107.79,156.82c-1.7,0.29-3.22,0.63-4.57,1.01c-1.35,0.38-3.02,0.57-5.01,0.57c-2.17,0-3.84-0.62-5.01-1.85
		c-1.17-1.23-1.76-2.61-1.76-4.13c0-1.23,0.2-2.83,0.62-4.79c0.41-1.96,0.62-3.94,0.62-5.93c-0.41-7.56-0.95-15.04-1.63-22.46
		c-0.67-7.41-1.33-14.19-1.98-20.35c-0.65-6.15-1.2-11.41-1.67-15.78c-0.47-4.36-0.7-7.34-0.7-8.92c0-1.05,0.26-2.04,0.79-2.94
		c0.53-0.91,1.26-1.71,2.2-2.42c0.94-0.7,2.04-1.24,3.3-1.63c1.26-0.38,2.59-0.57,4-0.57c2.75,0,4.77,0.43,6.06,1.27
		c1.29,0.85,2.08,2.21,2.37,4.09c1.64,12.6,2.83,24.16,3.56,34.67c0.73,10.52,1.24,20.38,1.54,29.58c0,1.35,0.37,2.37,1.1,3.08
		c0.73,0.7,1.68,1.05,2.86,1.05c2.34,0,4.72-0.13,7.12-0.4c2.4-0.26,4.8-0.54,7.21-0.83c2.4-0.29,4.79-0.57,7.16-0.83
		s4.67-0.4,6.9-0.4c1.46,0,2.65,0.18,3.56,0.53c0.91,0.35,1.61,0.82,2.11,1.41c0.5,0.59,0.82,1.25,0.97,1.98
		c0.15,0.73,0.22,1.45,0.22,2.15c0,1.11-0.12,2.23-0.35,3.34c-0.23,1.11-0.65,2.12-1.23,3.03c-0.59,0.91-1.38,1.67-2.37,2.29
		c-1,0.62-2.26,0.98-3.78,1.1c-7.21,0.7-13.79,1.23-19.73,1.58C116.3,155.68,111.48,156.17,107.79,156.82z"/>
	<path class="st0" d="M272.67,67.7c0,2.29-0.75,4.42-2.24,6.42c-1.49,1.99-3.37,3.93-5.63,5.8c-2.26,1.88-4.7,3.69-7.34,5.45
		s-5.08,3.55-7.34,5.36c-2.26,1.82-4.13,3.66-5.63,5.54c-1.49,1.88-2.24,3.87-2.24,5.98c0,1.76,1.23,3.46,3.69,5.1
		c2.46,1.64,6.01,3.28,10.63,4.92c4.63,1.64,10.22,3.33,16.79,5.05c6.56,1.73,13.94,3.56,22.15,5.49c4.1,1.11,6.15,3.19,6.15,6.24
		c0,1.17-0.28,2.32-0.83,3.43c-0.56,1.11-1.3,2.1-2.24,2.94c-0.94,0.85-2.01,1.54-3.21,2.07c-1.2,0.53-2.42,0.79-3.65,0.79
		c-2.93,0-6.26-0.44-9.98-1.32c-3.72-0.88-7.57-1.96-11.56-3.25c-3.99-1.29-7.97-2.71-11.95-4.26c-3.99-1.55-7.72-2.97-11.21-4.26
		c-3.49-1.29-6.56-2.37-9.23-3.25c-2.67-0.88-4.67-1.32-6.02-1.32c-1.05,0-2.07,0.48-3.03,1.45s-1.85,2.3-2.64,4
		c-0.79,1.7-1.45,3.71-1.98,6.02c-0.53,2.32-0.91,4.85-1.14,7.6c-0.29,3.11-1.39,5.41-3.3,6.9c-1.9,1.49-4.53,2.24-7.87,2.24
		c-3.46,0-5.45-1.61-5.98-4.83c-0.88-4.92-1.95-9.93-3.21-15.03c-1.26-5.1-2.64-10.2-4.13-15.29s-3.11-10.14-4.83-15.12
		c-1.73-4.98-3.53-9.76-5.41-14.33c-0.47-1-0.81-1.92-1.01-2.77c-0.21-0.85-0.31-1.71-0.31-2.59c0-0.76,0.23-1.48,0.7-2.15
		c0.47-0.67,1.11-1.27,1.93-1.8c0.82-0.53,1.77-0.94,2.86-1.23c1.08-0.29,2.21-0.44,3.38-0.44c2.4,0,4.31,0.5,5.71,1.49
		c1.41,1,2.84,2.49,4.31,4.48c0.7,0.94,1.38,2.18,2.02,3.74c0.64,1.55,1.26,3.21,1.85,4.97c0.58,1.76,1.17,3.53,1.76,5.32
		c0.58,1.79,1.16,3.4,1.71,4.83c0.56,1.44,1.11,2.61,1.67,3.52c0.56,0.91,1.1,1.36,1.63,1.36c0.47,0,0.86-0.2,1.19-0.62
		c0.32-0.41,0.72-1.02,1.19-1.85c3.05-6.33,6.39-12.11,10.02-17.36c3.63-5.24,7.35-9.73,11.16-13.45c3.81-3.72,7.63-6.61,11.47-8.66
		c3.84-2.05,7.51-3.08,11.03-3.08c1.41,0,2.72,0.25,3.96,0.75c1.23,0.5,2.3,1.19,3.21,2.07c0.91,0.88,1.63,1.92,2.15,3.12
		C272.41,65.08,272.67,66.35,272.67,67.7z"/>
	<path class="st0" d="M290.95,133.35c-1,0-1.74-0.5-2.24-1.49c-0.5-1-0.75-2.4-0.75-4.22c0-0.29,0-0.63,0-1.01
		c0-0.38,0.06-1.13,0.18-2.24c0.18-4.22,2.25-6.68,6.24-7.38l2.02-0.18c1.35-0.18,2.4-0.6,3.16-1.27c0.76-0.67,1.32-1.63,1.67-2.86
		c1-3.34,1.99-6.71,2.99-10.11c1-3.4,2.05-6.77,3.16-10.11c0.58-1.87,1.19-3.88,1.8-6.02c0.62-2.14,1.29-4.26,2.02-6.37
		c0.73-2.11,1.58-4.19,2.55-6.24c0.97-2.05,2.07-3.92,3.3-5.63c0.53-0.7,1.26-1.44,2.2-2.2c0.94-0.76,2.01-1.45,3.21-2.07
		c1.2-0.62,2.49-1.11,3.87-1.49c1.38-0.38,2.74-0.57,4.09-0.57c1.76,0,3.49,0.56,5.19,1.67c2.29,1.58,4.54,3.49,6.77,5.71
		c2.23,2.23,4.72,5.07,7.47,8.53c2.75,3.46,5.95,7.63,9.58,12.52c3.63,4.89,8,10.8,13.1,17.71c0.76,0.88,1.57,1.54,2.42,1.98
		c0.85,0.44,1.86,0.66,3.03,0.66h5.01c2.05,0,3.65,0.48,4.79,1.45s1.71,2.3,1.71,4c0,0.35-0.02,0.76-0.04,1.23
		c-0.03,0.47-0.13,0.94-0.31,1.41l-1.67,4.92c-0.12,0.47-0.21,0.88-0.26,1.23c-0.06,0.35-0.09,0.7-0.09,1.05
		c0,1.23,0.41,2.49,1.23,3.78l9.4,12.83c1.05,1.58,1.58,3.08,1.58,4.48c0,2.11-1.2,3.96-3.6,5.54l-3.34,2.37
		c-0.82,0.53-1.6,0.94-2.33,1.23c-0.73,0.29-1.48,0.44-2.24,0.44c-1.05,0-2.04-0.31-2.94-0.92c-0.91-0.62-1.77-1.45-2.59-2.5
		c-2.81-3.98-5.64-7.91-8.48-11.78c-2.84-3.87-5.73-7.7-8.66-11.51c-1.35-1.87-3.14-2.81-5.36-2.81
		c-7.15,0.29-14.22,0.69-21.23,1.19c-7,0.5-14.02,1.1-21.05,1.8c-2.52,0.23-4.1,1.58-4.75,4.04l-3.96,14.5
		c-1.05,3.87-3.4,5.8-7.03,5.8h-1.41l-2.72-0.35c-1.99-0.18-3.5-0.79-4.53-1.85c-1.03-1.05-1.54-2.43-1.54-4.13
		c0-0.35,0.03-0.73,0.09-1.14c0.06-0.41,0.15-0.85,0.26-1.32c0.29-1.17,0.6-2.37,0.92-3.6c0.32-1.23,0.66-2.43,1.01-3.6
		c0.12-0.47,0.2-0.89,0.26-1.27c0.06-0.38,0.09-0.75,0.09-1.1c0-1.82-0.7-2.72-2.11-2.72H290.95z M332.79,86.95
		c-0.59-0.53-1.11-0.97-1.58-1.32c-0.47-0.35-0.97-0.53-1.49-0.53c-1.47,0-2.49,1.03-3.08,3.08c-1.17,3.46-2.3,6.87-3.38,10.24
		c-1.08,3.37-2.18,6.81-3.3,10.33c-0.12,0.29-0.18,0.56-0.18,0.79c0,0.23,0,0.5,0,0.79c0,2.17,1.14,3.25,3.43,3.25h0.88
		c3.52-0.47,7.03-0.83,10.55-1.1s7.03-0.48,10.55-0.66c1.17-0.12,2.09-0.42,2.77-0.92c0.67-0.5,1.01-1.16,1.01-1.98
		c0-0.76-0.35-1.67-1.05-2.72c-2.46-3.28-4.94-6.52-7.43-9.71C337.99,93.29,335.42,90.11,332.79,86.95z"/>
	<path class="st0" d="M423.84,84.22c-1.17,0.47-2.32,0.7-3.43,0.7c-2.81,0-4.75-1.67-5.8-5.01c-0.29-0.88-0.48-1.61-0.57-2.2
		c-0.09-0.58-0.13-1.11-0.13-1.58c0-2.75,1.55-4.8,4.66-6.15c6.15-2.46,12.42-4.45,18.81-5.98c6.39-1.52,12.83-2.29,19.34-2.29
		c3.05,0,6.05,0.32,9.01,0.97c2.96,0.65,5.61,1.76,7.95,3.34c2.34,1.58,4.25,3.69,5.71,6.33c1.46,2.64,2.2,5.95,2.2,9.93
		c0,2.81-0.57,5.51-1.71,8.09c-1.14,2.58-2.65,5.04-4.53,7.38c-1.88,2.34-4.01,4.57-6.42,6.68c-2.4,2.11-4.86,4.04-7.38,5.8
		c-2.52,1.76-5.01,3.35-7.47,4.79c-2.46,1.44-4.69,2.68-6.68,3.74c-1.7,1-2.55,2.02-2.55,3.08c0,1.23,0.91,2.2,2.72,2.9
		c6.27,2.23,12.69,4.31,19.25,6.24c6.56,1.93,13.21,4.1,19.95,6.5c3.16,1.17,4.75,2.99,4.75,5.45c0,1.17-0.34,2.36-1.01,3.56
		c-0.67,1.2-1.42,2.3-2.24,3.3c-1.7,2.52-3.81,3.78-6.33,3.78c-0.88,0-1.96-0.18-3.25-0.53c-3.81-1.47-7.9-2.99-12.26-4.57
		c-4.37-1.58-8.82-3.15-13.36-4.7c-4.54-1.55-9.01-3.05-13.4-4.48c-4.39-1.44-8.47-2.74-12.22-3.91c-1.35-0.35-2.26-0.53-2.72-0.53
		c-0.47,0-0.83,0.1-1.1,0.31c-0.26,0.21-0.4,0.63-0.4,1.27c0,0.18,0.03,0.4,0.09,0.66c0.06,0.26,0.09,0.54,0.09,0.83
		c0.18,0.88,0.4,2.04,0.66,3.47c0.26,1.44,0.53,2.92,0.79,4.44c0.26,1.52,0.48,2.97,0.66,4.35s0.26,2.5,0.26,3.38
		c0,3.28-1.79,5.57-5.36,6.86l-3.96,1.23c-0.59,0.18-1.11,0.31-1.58,0.4c-0.47,0.09-0.97,0.13-1.49,0.13c-3.22,0-5.1-1.99-5.63-5.98
		c-1.41-10.66-3.21-21.18-5.41-31.55s-4.7-20.71-7.51-31.03c-0.18-0.58-0.28-1.1-0.31-1.54c-0.03-0.44-0.04-0.83-0.04-1.19
		c0-3.1,1.67-5.21,5.01-6.33c1.23-0.41,2.24-0.73,3.03-0.97c0.79-0.23,1.44-0.42,1.93-0.57c0.5-0.15,0.88-0.25,1.14-0.31
		c0.26-0.06,0.51-0.09,0.75-0.09c3.16,0,5.21,1.79,6.15,5.36c1.23,4.57,2.39,9,3.47,13.27c1.08,4.28,2.07,8.5,2.94,12.66
		c0.47,2.05,1.32,3.08,2.55,3.08c0.35,0,0.76-0.07,1.23-0.22c0.47-0.15,1.02-0.37,1.67-0.66c1.87-1,4.14-2.23,6.81-3.69
		c2.67-1.46,5.45-3.09,8.35-4.88c2.9-1.79,5.77-3.68,8.61-5.67c2.84-1.99,5.39-3.98,7.65-5.98c2.25-1.99,4.09-3.96,5.49-5.89
		s2.11-3.75,2.11-5.45c0-1.05-0.16-2.02-0.48-2.9c-0.32-0.88-0.92-1.64-1.8-2.29c-0.88-0.64-2.07-1.14-3.56-1.49
		s-3.38-0.53-5.67-0.53c-2.23,0-4.56,0.19-6.99,0.57c-2.43,0.38-4.85,0.89-7.25,1.54c-2.4,0.65-4.78,1.38-7.12,2.2
		C428.18,82.49,425.95,83.34,423.84,84.22z"/>
	<path class="st0" d="M491.43,133.35c-1,0-1.74-0.5-2.24-1.49c-0.5-1-0.75-2.4-0.75-4.22c0-0.29,0-0.63,0-1.01
		c0-0.38,0.06-1.13,0.18-2.24c0.18-4.22,2.25-6.68,6.24-7.38l2.02-0.18c1.35-0.18,2.4-0.6,3.16-1.27c0.76-0.67,1.32-1.63,1.67-2.86
		c1-3.34,1.99-6.71,2.99-10.11c1-3.4,2.05-6.77,3.16-10.11c0.58-1.87,1.19-3.88,1.8-6.02c0.62-2.14,1.29-4.26,2.02-6.37
		c0.73-2.11,1.58-4.19,2.55-6.24c0.97-2.05,2.07-3.92,3.3-5.63c0.53-0.7,1.26-1.44,2.2-2.2c0.94-0.76,2.01-1.45,3.21-2.07
		c1.2-0.62,2.49-1.11,3.87-1.49c1.38-0.38,2.74-0.57,4.09-0.57c1.76,0,3.49,0.56,5.19,1.67c2.29,1.58,4.54,3.49,6.77,5.71
		c2.23,2.23,4.72,5.07,7.47,8.53c2.75,3.46,5.95,7.63,9.58,12.52c3.63,4.89,8,10.8,13.1,17.71c0.76,0.88,1.57,1.54,2.42,1.98
		c0.85,0.44,1.86,0.66,3.03,0.66h5.01c2.05,0,3.65,0.48,4.79,1.45s1.71,2.3,1.71,4c0,0.35-0.02,0.76-0.04,1.23
		c-0.03,0.47-0.13,0.94-0.31,1.41l-1.67,4.92c-0.12,0.47-0.21,0.88-0.26,1.23c-0.06,0.35-0.09,0.7-0.09,1.05
		c0,1.23,0.41,2.49,1.23,3.78l9.4,12.83c1.05,1.58,1.58,3.08,1.58,4.48c0,2.11-1.2,3.96-3.6,5.54l-3.34,2.37
		c-0.82,0.53-1.6,0.94-2.33,1.23c-0.73,0.29-1.48,0.44-2.24,0.44c-1.05,0-2.04-0.31-2.94-0.92c-0.91-0.62-1.77-1.45-2.59-2.5
		c-2.81-3.98-5.64-7.91-8.48-11.78c-2.84-3.87-5.73-7.7-8.66-11.51c-1.35-1.87-3.14-2.81-5.36-2.81
		c-7.15,0.29-14.22,0.69-21.23,1.19c-7,0.5-14.02,1.1-21.05,1.8c-2.52,0.23-4.1,1.58-4.75,4.04l-3.96,14.5
		c-1.05,3.87-3.4,5.8-7.03,5.8h-1.41l-2.72-0.35c-1.99-0.18-3.5-0.79-4.53-1.85c-1.03-1.05-1.54-2.43-1.54-4.13
		c0-0.35,0.03-0.73,0.09-1.14c0.06-0.41,0.15-0.85,0.26-1.32c0.29-1.17,0.6-2.37,0.92-3.6c0.32-1.23,0.66-2.43,1.01-3.6
		c0.12-0.47,0.2-0.89,0.26-1.27c0.06-0.38,0.09-0.75,0.09-1.1c0-1.82-0.7-2.72-2.11-2.72H491.43z M533.26,86.95
		c-0.59-0.53-1.11-0.97-1.58-1.32c-0.47-0.35-0.97-0.53-1.49-0.53c-1.47,0-2.49,1.03-3.08,3.08c-1.17,3.46-2.3,6.87-3.38,10.24
		c-1.08,3.37-2.18,6.81-3.3,10.33c-0.12,0.29-0.18,0.56-0.18,0.79c0,0.23,0,0.5,0,0.79c0,2.17,1.14,3.25,3.43,3.25h0.88
		c3.52-0.47,7.03-0.83,10.55-1.1s7.03-0.48,10.55-0.66c1.17-0.12,2.09-0.42,2.77-0.92c0.67-0.5,1.01-1.16,1.01-1.98
		c0-0.76-0.35-1.67-1.05-2.72c-2.46-3.28-4.94-6.52-7.43-9.71C538.46,93.29,535.9,90.11,533.26,86.95z"/>
	<path class="st0" d="M640.84,161.83c-6.39,0-12.26-1.08-17.62-3.25c-5.36-2.17-9.98-5.2-13.84-9.1s-6.89-8.54-9.05-13.93
		c-2.17-5.39-3.25-11.34-3.25-17.84c0-3.52,0.31-6.9,0.92-10.15s1.45-6.28,2.5-9.1c0.47-1.11,0.7-1.9,0.7-2.37
		c0-0.58-0.15-1.14-0.44-1.67c-0.29-0.53-0.62-1.08-0.97-1.67c-0.35-0.58-0.67-1.2-0.97-1.85c-0.29-0.64-0.44-1.38-0.44-2.2
		c0-2.46,1.41-4.88,4.22-7.25s6.53-4.48,11.16-6.33c4.63-1.85,9.87-3.34,15.73-4.48c5.86-1.14,11.87-1.71,18.02-1.71
		c7.56,0,14.37,0.97,20.43,2.9s11.22,4.7,15.47,8.31c4.25,3.6,7.51,7.98,9.8,13.14c2.29,5.16,3.43,10.96,3.43,17.4
		c0,7.21-1.44,13.93-4.31,20.17c-2.87,6.24-6.81,11.65-11.82,16.22s-10.91,8.17-17.71,10.81
		C656.02,160.51,648.69,161.83,640.84,161.83z M678.99,114.1c0-4.57-0.79-8.67-2.37-12.3c-1.58-3.63-3.87-6.69-6.86-9.18
		c-2.99-2.49-6.67-4.39-11.03-5.71c-4.37-1.32-9.3-1.98-14.81-1.98c-9.67,0-16.95,2.45-21.84,7.34c-4.89,4.89-7.34,12.17-7.34,21.84
		c0,4.69,0.73,8.98,2.2,12.88c1.46,3.9,3.52,7.24,6.15,10.02c2.64,2.78,5.79,4.95,9.45,6.5c3.66,1.55,7.69,2.33,12.08,2.33
		c5.04,0,9.67-0.78,13.89-2.33c4.22-1.55,7.84-3.74,10.85-6.55c3.02-2.81,5.38-6.17,7.08-10.06
		C678.14,123,678.99,118.73,678.99,114.1z"/>
	<path class="st0" d="M786.83,67.7c0,2.29-0.75,4.42-2.24,6.42c-1.49,1.99-3.37,3.93-5.63,5.8c-2.26,1.88-4.7,3.69-7.34,5.45
		s-5.08,3.55-7.34,5.36c-2.26,1.82-4.13,3.66-5.63,5.54c-1.49,1.88-2.24,3.87-2.24,5.98c0,1.76,1.23,3.46,3.69,5.1
		c2.46,1.64,6.01,3.28,10.63,4.92c4.63,1.64,10.22,3.33,16.79,5.05c6.56,1.73,13.94,3.56,22.15,5.49c4.1,1.11,6.15,3.19,6.15,6.24
		c0,1.17-0.28,2.32-0.83,3.43c-0.56,1.11-1.3,2.1-2.24,2.94c-0.94,0.85-2.01,1.54-3.21,2.07c-1.2,0.53-2.42,0.79-3.65,0.79
		c-2.93,0-6.26-0.44-9.98-1.32c-3.72-0.88-7.57-1.96-11.56-3.25c-3.99-1.29-7.97-2.71-11.95-4.26c-3.99-1.55-7.72-2.97-11.21-4.26
		c-3.49-1.29-6.56-2.37-9.23-3.25c-2.67-0.88-4.67-1.32-6.02-1.32c-1.05,0-2.07,0.48-3.03,1.45s-1.85,2.3-2.64,4
		c-0.79,1.7-1.45,3.71-1.98,6.02c-0.53,2.32-0.91,4.85-1.14,7.6c-0.29,3.11-1.39,5.41-3.3,6.9c-1.9,1.49-4.53,2.24-7.87,2.24
		c-3.46,0-5.45-1.61-5.98-4.83c-0.88-4.92-1.95-9.93-3.21-15.03c-1.26-5.1-2.64-10.2-4.13-15.29s-3.11-10.14-4.83-15.12
		c-1.73-4.98-3.53-9.76-5.41-14.33c-0.47-1-0.81-1.92-1.01-2.77c-0.21-0.85-0.31-1.71-0.31-2.59c0-0.76,0.23-1.48,0.7-2.15
		c0.47-0.67,1.11-1.27,1.93-1.8c0.82-0.53,1.77-0.94,2.86-1.23c1.08-0.29,2.21-0.44,3.38-0.44c2.4,0,4.31,0.5,5.71,1.49
		c1.41,1,2.84,2.49,4.31,4.48c0.7,0.94,1.38,2.18,2.02,3.74c0.64,1.55,1.26,3.21,1.85,4.97c0.58,1.76,1.17,3.53,1.76,5.32
		c0.58,1.79,1.16,3.4,1.71,4.83c0.56,1.44,1.11,2.61,1.67,3.52c0.56,0.91,1.1,1.36,1.63,1.36c0.47,0,0.86-0.2,1.19-0.62
		c0.32-0.41,0.72-1.02,1.19-1.85c3.05-6.33,6.39-12.11,10.02-17.36c3.63-5.24,7.35-9.73,11.16-13.45c3.81-3.72,7.63-6.61,11.47-8.66
		c3.84-2.05,7.51-3.08,11.03-3.08c1.41,0,2.72,0.25,3.96,0.75c1.23,0.5,2.3,1.19,3.21,2.07c0.91,0.88,1.63,1.92,2.15,3.12
		C786.57,65.08,786.83,66.35,786.83,67.7z"/>
	<path class="st0" d="M813.64,129.22c-0.18,0-0.45,0.03-0.83,0.09c-0.38,0.06-0.79,0.12-1.23,0.18c-0.44,0.06-0.87,0.12-1.27,0.18
		c-0.41,0.06-0.73,0.09-0.97,0.09c-1.64,0-3.08-0.69-4.31-2.07c-1.23-1.38-1.85-3.21-1.85-5.49c0-1.52,0.5-2.99,1.49-4.39
		c1-1.41,2.55-2.58,4.66-3.52c0.64-0.29,1.16-0.63,1.54-1.01c0.38-0.38,0.57-0.92,0.57-1.63c0-1.87-0.04-3.88-0.13-6.02
		c-0.09-2.14-0.22-4.64-0.4-7.51c-0.06-0.58-0.25-1.14-0.57-1.67c-0.32-0.53-0.67-1.13-1.05-1.8c-0.38-0.67-0.72-1.42-1.01-2.24
		c-0.29-0.82-0.44-1.85-0.44-3.08c0-1.11,0.16-2.39,0.48-3.82c0.32-1.44,1-2.78,2.02-4.04c1.02-1.26,2.46-2.31,4.31-3.16
		c1.85-0.85,4.26-1.27,7.25-1.27c1.23,0,2.25,0.12,3.08,0.35c0.82,0.23,1.54,0.51,2.15,0.83c0.62,0.32,1.17,0.6,1.67,0.83
		c0.5,0.23,1.01,0.35,1.54,0.35c0.94,0,2.81-0.18,5.63-0.53s6.2-0.85,10.15-1.49c3.96-0.64,8.32-1.38,13.1-2.2
		c4.77-0.82,9.62-1.71,14.55-2.68s9.73-1.95,14.41-2.94c4.69-1,8.93-1.96,12.74-2.9c1.17-0.29,2.2-0.44,3.08-0.44
		c1.23,0,2.21,0.28,2.94,0.83c0.73,0.56,1.27,1.25,1.63,2.07c0.35,0.82,0.57,1.74,0.66,2.77c0.09,1.03,0.13,1.98,0.13,2.86
		c0,1.52-0.51,2.94-1.54,4.26c-1.03,1.32-2.71,2.36-5.05,3.12c-5.8,1.7-11.65,3.18-17.53,4.44c-5.89,1.26-11.82,2.4-17.8,3.43
		c-5.98,1.03-11.98,1.95-18.02,2.77c-6.04,0.82-12.04,1.64-18.02,2.46c-0.82,0.12-1.44,0.43-1.85,0.92
		c-0.41,0.5-0.62,1.16-0.62,1.98v3.6c0,1,0.03,2.02,0.09,3.08c0.06,1.05,0.19,2.02,0.4,2.9c0.2,0.88,0.48,1.6,0.83,2.15
		c0.35,0.56,0.82,0.83,1.41,0.83c1.41,0,3.59-0.29,6.55-0.88c2.96-0.58,6.3-1.3,10.02-2.15c3.72-0.85,7.62-1.79,11.69-2.81
		c4.07-1.02,7.92-1.96,11.56-2.81c3.63-0.85,6.83-1.57,9.58-2.15c2.75-0.58,4.69-0.88,5.8-0.88c1.64,0,2.89,0.6,3.74,1.8
		c0.85,1.2,1.42,2.71,1.71,4.53c0,0.29,0.03,0.56,0.09,0.79c0.06,0.23,0.09,0.5,0.09,0.79c0,1.7-0.51,3.27-1.54,4.7
		c-1.03,1.44-2.86,2.5-5.49,3.21c-0.7,0.23-2.11,0.6-4.22,1.1c-2.11,0.5-4.6,1.08-7.47,1.76c-2.87,0.67-5.98,1.39-9.32,2.15
		c-3.34,0.76-6.62,1.51-9.84,2.24c-3.22,0.73-6.23,1.44-9.01,2.11c-2.78,0.67-5.05,1.22-6.81,1.63c-1.58,0.41-2.54,0.73-2.86,0.97
		c-0.32,0.23-0.48,0.53-0.48,0.88c0.12,1.29,0.78,2.49,1.98,3.6c1.2,1.11,2.72,2.14,4.57,3.08c1.85,0.94,3.92,1.79,6.24,2.55
		c2.31,0.76,4.72,1.39,7.21,1.89c2.49,0.5,4.94,0.89,7.34,1.19c2.4,0.29,4.63,0.44,6.68,0.44c0.88,0,2.14,0,3.78,0
		c1.64,0,3.44-0.04,5.41-0.13c1.96-0.09,3.98-0.22,6.06-0.4c2.08-0.18,3.96-0.42,5.63-0.75c1.67-0.32,3.05-0.73,4.13-1.23
		c1.08-0.5,1.63-1.1,1.63-1.8c0-0.64-0.22-1.32-0.66-2.02s-0.66-1.46-0.66-2.29c0-1.17,0.32-2.33,0.97-3.47
		c0.64-1.14,1.48-2.17,2.5-3.08c1.02-0.91,2.2-1.64,3.52-2.2c1.32-0.56,2.65-0.83,4-0.83c1.7,0,3.25,0.34,4.66,1.01
		c1.41,0.67,2.62,1.55,3.65,2.64c1.02,1.08,1.82,2.33,2.37,3.74c0.56,1.41,0.83,2.84,0.83,4.31c0,3.87-1.42,7.21-4.26,10.02
		c-2.84,2.81-6.55,5.14-11.12,6.99s-9.73,3.22-15.47,4.13c-5.74,0.91-11.51,1.36-17.31,1.36c-6.8,0-13.01-0.45-18.63-1.36
		c-5.63-0.91-10.67-2.36-15.12-4.35c-4.45-1.99-8.29-4.58-11.51-7.78c-3.22-3.19-5.86-7.08-7.91-11.65
		C815.22,129.9,814.46,129.22,813.64,129.22z"/>
	<path class="st0" d="M971.49,117.18c-2.81-3.98-5.46-7.75-7.95-11.29c-2.49-3.54-4.67-6.86-6.55-9.93
		c-1.88-3.08-3.35-5.9-4.44-8.48c-1.08-2.58-1.63-4.92-1.63-7.03c0-1.05,0.45-2.21,1.36-3.47c0.91-1.26,1.98-2.43,3.21-3.52
		c1.23-1.08,2.5-1.99,3.82-2.72c1.32-0.73,2.42-1.1,3.3-1.1c2.11,0,3.92,1.32,5.45,3.96c0.64,1.23,1.63,3.03,2.94,5.41
		s2.86,5.07,4.61,8.09c1.76,3.02,3.71,6.24,5.84,9.67c2.14,3.43,4.34,6.84,6.59,10.24c2.25,3.4,4.51,6.67,6.77,9.8
		c2.25,3.14,4.42,5.9,6.5,8.31c2.08,2.4,4.01,4.32,5.8,5.76c1.79,1.44,3.32,2.15,4.61,2.15c1.7,0,3.25-1.17,4.66-3.52
		c1.41-2.34,2.71-5.42,3.91-9.23c1.2-3.81,2.27-8.13,3.21-12.96c0.94-4.83,1.77-9.74,2.5-14.72c0.73-4.98,1.36-9.8,1.89-14.46
		s0.97-8.75,1.32-12.26c0.18-1.87,0.7-3.3,1.58-4.26s2.02-1.45,3.43-1.45c1.23,0,2.58,0.26,4.04,0.79c1.46,0.53,2.84,1.25,4.13,2.15
		c1.29,0.91,2.36,1.96,3.21,3.16c0.85,1.2,1.27,2.5,1.27,3.91c0,2.17-0.19,4.72-0.57,7.65c-0.38,2.93-0.85,6.02-1.41,9.27
		c-0.56,3.25-1.19,6.56-1.89,9.93c-0.7,3.37-1.41,6.55-2.11,9.54c-0.47,2.11-1.1,4.73-1.89,7.87c-0.79,3.14-1.77,6.45-2.94,9.93
		c-1.17,3.49-2.55,6.97-4.13,10.46c-1.58,3.49-3.4,6.62-5.45,9.4c-2.05,2.78-4.35,5.04-6.9,6.77s-5.41,2.59-8.57,2.59
		c-2.29,0-4.66-0.63-7.12-1.89s-4.92-2.91-7.38-4.97c-2.46-2.05-4.89-4.38-7.29-6.99c-2.4-2.61-4.69-5.26-6.86-7.95
		c-2.17-2.69-4.19-5.32-6.06-7.87C974.45,121.36,972.83,119.11,971.49,117.18z"/>
	<path class="st0" d="M1063.42,68.75c0-1.05,0.26-2.04,0.79-2.94c0.53-0.91,1.26-1.7,2.2-2.37c0.94-0.67,2.04-1.22,3.3-1.63
		c1.26-0.41,2.59-0.62,4-0.62c2.75,0,4.77,0.44,6.06,1.32c1.29,0.88,2.08,2.26,2.37,4.13c1,7.79,1.83,15.16,2.5,22.1
		c0.67,6.94,1.22,13.57,1.63,19.86c0.41,6.3,0.7,12.33,0.88,18.11c0.18,5.77,0.26,11.35,0.26,16.74c0,2.93-1.04,5.13-3.12,6.59
		c-2.08,1.46-5.11,2.2-9.1,2.2c-1.82,0-3.24-0.43-4.26-1.27c-1.03-0.85-1.54-2.09-1.54-3.74c0-10.08-0.31-19.53-0.92-28.34
		c-0.62-8.82-1.3-16.66-2.07-23.51c-0.76-6.86-1.45-12.58-2.07-17.18C1063.73,73.6,1063.42,70.45,1063.42,68.75z"/>
	<path class="st0" d="M1129.95,84.22c-1.17,0.47-2.32,0.7-3.43,0.7c-2.81,0-4.75-1.67-5.8-5.01c-0.29-0.88-0.48-1.61-0.57-2.2
		c-0.09-0.58-0.13-1.11-0.13-1.58c0-2.75,1.55-4.8,4.66-6.15c6.15-2.46,12.42-4.45,18.81-5.98c6.39-1.52,12.83-2.29,19.34-2.29
		c3.05,0,6.05,0.32,9.01,0.97c2.96,0.65,5.61,1.76,7.95,3.34c2.34,1.58,4.25,3.69,5.71,6.33c1.46,2.64,2.2,5.95,2.2,9.93
		c0,2.81-0.57,5.51-1.71,8.09c-1.14,2.58-2.65,5.04-4.53,7.38c-1.88,2.34-4.01,4.57-6.42,6.68c-2.4,2.11-4.86,4.04-7.38,5.8
		c-2.52,1.76-5.01,3.35-7.47,4.79c-2.46,1.44-4.69,2.68-6.68,3.74c-1.7,1-2.55,2.02-2.55,3.08c0,1.23,0.91,2.2,2.72,2.9
		c6.27,2.23,12.69,4.31,19.25,6.24c6.56,1.93,13.21,4.1,19.95,6.5c3.16,1.17,4.75,2.99,4.75,5.45c0,1.17-0.34,2.36-1.01,3.56
		c-0.67,1.2-1.42,2.3-2.24,3.3c-1.7,2.52-3.81,3.78-6.33,3.78c-0.88,0-1.96-0.18-3.25-0.53c-3.81-1.47-7.9-2.99-12.26-4.57
		c-4.37-1.58-8.82-3.15-13.36-4.7c-4.54-1.55-9.01-3.05-13.4-4.48c-4.39-1.44-8.47-2.74-12.22-3.91c-1.35-0.35-2.26-0.53-2.72-0.53
		c-0.47,0-0.83,0.1-1.1,0.31c-0.26,0.21-0.4,0.63-0.4,1.27c0,0.18,0.03,0.4,0.09,0.66c0.06,0.26,0.09,0.54,0.09,0.83
		c0.18,0.88,0.4,2.04,0.66,3.47c0.26,1.44,0.53,2.92,0.79,4.44c0.26,1.52,0.48,2.97,0.66,4.35s0.26,2.5,0.26,3.38
		c0,3.28-1.79,5.57-5.36,6.86l-3.96,1.23c-0.59,0.18-1.11,0.31-1.58,0.4c-0.47,0.09-0.97,0.13-1.49,0.13c-3.22,0-5.1-1.99-5.63-5.98
		c-1.41-10.66-3.21-21.18-5.41-31.55s-4.7-20.71-7.51-31.03c-0.18-0.58-0.28-1.1-0.31-1.54c-0.03-0.44-0.04-0.83-0.04-1.19
		c0-3.1,1.67-5.21,5.01-6.33c1.23-0.41,2.24-0.73,3.03-0.97c0.79-0.23,1.44-0.42,1.93-0.57c0.5-0.15,0.88-0.25,1.14-0.31
		c0.26-0.06,0.51-0.09,0.75-0.09c3.16,0,5.21,1.79,6.15,5.36c1.23,4.57,2.39,9,3.47,13.27c1.08,4.28,2.07,8.5,2.94,12.66
		c0.47,2.05,1.32,3.08,2.55,3.08c0.35,0,0.76-0.07,1.23-0.22c0.47-0.15,1.02-0.37,1.67-0.66c1.87-1,4.14-2.23,6.81-3.69
		c2.67-1.46,5.45-3.09,8.35-4.88c2.9-1.79,5.77-3.68,8.61-5.67c2.84-1.99,5.39-3.98,7.65-5.98c2.25-1.99,4.09-3.96,5.49-5.89
		s2.11-3.75,2.11-5.45c0-1.05-0.16-2.02-0.48-2.9c-0.32-0.88-0.92-1.64-1.8-2.29c-0.88-0.64-2.07-1.14-3.56-1.49
		s-3.38-0.53-5.67-0.53c-2.23,0-4.56,0.19-6.99,0.57c-2.43,0.38-4.85,0.89-7.25,1.54c-2.4,0.65-4.78,1.38-7.12,2.2
		C1134.29,82.49,1132.06,83.34,1129.95,84.22z"/>
	<path class="st0" d="M1214.68,77.81c-0.47,0-1.36,0.1-2.68,0.31c-1.32,0.21-2.86,0.45-4.61,0.75c-1.76,0.29-3.6,0.63-5.54,1.01
		c-1.93,0.38-3.75,0.72-5.45,1.01c-1.7,0.29-3.18,0.54-4.44,0.75c-1.26,0.21-2.09,0.31-2.5,0.31c-3.92,0-5.89-2.05-5.89-6.15
		c0-1.11,0.1-2.21,0.31-3.3c0.21-1.08,0.57-2.08,1.1-2.99c0.53-0.91,1.23-1.68,2.11-2.33c0.88-0.64,1.99-1.08,3.34-1.32
		c6.86-1.05,13.68-2.17,20.48-3.34c6.8-1.17,13.65-2.4,20.57-3.69c1.52-0.29,2.9-0.57,4.13-0.83s2.61-0.63,4.13-1.1
		c1.64-0.47,3.43-0.92,5.36-1.36s3.88-0.83,5.84-1.19c1.96-0.35,3.87-0.64,5.71-0.88c1.85-0.23,3.53-0.35,5.05-0.35
		c1.88,0,3.3,0.6,4.26,1.8c0.97,1.2,1.45,2.89,1.45,5.05c0,1.11-0.09,2.18-0.26,3.21c-0.18,1.03-0.5,1.95-0.97,2.77
		c-0.47,0.82-1.11,1.49-1.93,2.02c-0.82,0.53-1.88,0.85-3.16,0.97c-3.34,0.47-6.91,1.04-10.72,1.71c-3.81,0.67-7.12,1.42-9.93,2.24
		c-1.17,0.35-2.05,0.92-2.64,1.71c-0.59,0.79-0.97,1.77-1.14,2.94c-0.18,1.11-0.28,2.24-0.31,3.38c-0.03,1.14-0.04,2.24-0.04,3.3
		c0,2.46,0.1,4.92,0.31,7.38c0.21,2.46,0.4,4.92,0.57,7.38c0.53,8.44,1.33,16.79,2.42,25.05c1.08,8.26,2.27,16.61,3.56,25.05
		c0.12,0.29,0.18,0.59,0.18,0.88c0,0.29,0,0.59,0,0.88c0,3.22-1.82,5.51-5.45,6.86l-3.96,1.23c-1.05,0.35-2.08,0.53-3.08,0.53
		c-1.52,0-2.75-0.48-3.69-1.45c-0.94-0.97-1.55-2.39-1.85-4.26c-1.64-10.08-3.08-20.11-4.31-30.1c-1.23-9.99-2.02-20.05-2.37-30.19
		c-0.12-1.64-0.21-3.43-0.26-5.36c-0.06-1.93-0.09-3.92-0.09-5.98C1218.28,79.24,1217.08,77.81,1214.68,77.81z"/>
	<path class="st0" d="M1269.52,78.51c0.35-2.05,1.35-3.59,2.99-4.61c1.64-1.02,4.36-1.54,8.17-1.54c2.05,0,3.65,0.53,4.79,1.58
		s1.71,2.52,1.71,4.39c0,0.29-0.03,0.56-0.09,0.79c-0.06,0.23-0.09,0.5-0.09,0.79c-0.65,3.81-1.17,7.76-1.58,11.87
		c-0.41,4.1-0.62,8.26-0.62,12.48c0,5.45,0.48,10.59,1.45,15.42s2.69,9.05,5.19,12.66c2.49,3.6,5.89,6.45,10.2,8.53
		c4.31,2.08,9.8,3.12,16.48,3.12c3.75,0,7.06-0.67,9.93-2.02c2.87-1.35,5.26-3.21,7.16-5.58c1.9-2.37,3.34-5.17,4.31-8.39
		c0.97-3.22,1.45-6.71,1.45-10.46c0-3.75-0.4-7.44-1.19-11.07c-0.79-3.63-1.85-7.22-3.16-10.77c-1.32-3.54-2.84-7.04-4.57-10.5
		c-1.73-3.46-3.56-6.94-5.49-10.46c-0.82-1.58-1.23-3.02-1.23-4.31c0-2.29,1.2-4.22,3.6-5.8l3.6-2.37c1.58-1.05,3.08-1.58,4.48-1.58
		c2.17,0,3.98,1.32,5.45,3.96c2.23,3.93,4.36,7.9,6.42,11.91c2.05,4.01,3.85,8.13,5.41,12.35c1.55,4.22,2.78,8.57,3.69,13.05
		c0.91,4.48,1.36,9.1,1.36,13.84c0,6.62-1.1,12.66-3.3,18.11s-5.32,10.12-9.36,14.02s-8.89,6.91-14.55,9.05
		c-5.66,2.14-11.94,3.21-18.85,3.21c-7.5,0-14.17-1.3-20-3.91c-5.83-2.61-10.74-6.21-14.72-10.81c-3.99-4.6-7-10.05-9.05-16.35
		c-2.05-6.3-3.08-13.14-3.08-20.52c0-5.16,0.31-10.33,0.92-15.51S1268.7,83.02,1269.52,78.51z"/>
	<path class="st0" d="M1370.69,133.35c-1,0-1.74-0.5-2.24-1.49c-0.5-1-0.75-2.4-0.75-4.22c0-0.29,0-0.63,0-1.01
		c0-0.38,0.06-1.13,0.18-2.24c0.18-4.22,2.25-6.68,6.24-7.38l2.02-0.18c1.35-0.18,2.4-0.6,3.16-1.27c0.76-0.67,1.32-1.63,1.67-2.86
		c1-3.34,1.99-6.71,2.99-10.11c1-3.4,2.05-6.77,3.16-10.11c0.58-1.87,1.19-3.88,1.8-6.02c0.62-2.14,1.29-4.26,2.02-6.37
		c0.73-2.11,1.58-4.19,2.55-6.24c0.97-2.05,2.07-3.92,3.3-5.63c0.53-0.7,1.26-1.44,2.2-2.2c0.94-0.76,2.01-1.45,3.21-2.07
		c1.2-0.62,2.49-1.11,3.87-1.49c1.38-0.38,2.74-0.57,4.09-0.57c1.76,0,3.49,0.56,5.19,1.67c2.29,1.58,4.54,3.49,6.77,5.71
		c2.23,2.23,4.72,5.07,7.47,8.53c2.75,3.46,5.95,7.63,9.58,12.52c3.63,4.89,8,10.8,13.1,17.71c0.76,0.88,1.57,1.54,2.42,1.98
		c0.85,0.44,1.86,0.66,3.03,0.66h5.01c2.05,0,3.65,0.48,4.79,1.45s1.71,2.3,1.71,4c0,0.35-0.01,0.76-0.04,1.23
		c-0.03,0.47-0.13,0.94-0.31,1.41l-1.67,4.92c-0.12,0.47-0.21,0.88-0.26,1.23c-0.06,0.35-0.09,0.7-0.09,1.05
		c0,1.23,0.41,2.49,1.23,3.78l9.4,12.83c1.05,1.58,1.58,3.08,1.58,4.48c0,2.11-1.2,3.96-3.6,5.54l-3.34,2.37
		c-0.82,0.53-1.6,0.94-2.33,1.23c-0.73,0.29-1.48,0.44-2.24,0.44c-1.05,0-2.04-0.31-2.94-0.92c-0.91-0.62-1.77-1.45-2.59-2.5
		c-2.81-3.98-5.64-7.91-8.48-11.78c-2.84-3.87-5.73-7.7-8.66-11.51c-1.35-1.87-3.13-2.81-5.36-2.81
		c-7.15,0.29-14.22,0.69-21.23,1.19c-7,0.5-14.02,1.1-21.05,1.8c-2.52,0.23-4.1,1.58-4.75,4.04l-3.96,14.5
		c-1.05,3.87-3.4,5.8-7.03,5.8h-1.41l-2.72-0.35c-1.99-0.18-3.5-0.79-4.53-1.85c-1.03-1.05-1.54-2.43-1.54-4.13
		c0-0.35,0.03-0.73,0.09-1.14c0.06-0.41,0.15-0.85,0.26-1.32c0.29-1.17,0.6-2.37,0.92-3.6c0.32-1.23,0.66-2.43,1.01-3.6
		c0.12-0.47,0.21-0.89,0.26-1.27c0.06-0.38,0.09-0.75,0.09-1.1c0-1.82-0.7-2.72-2.11-2.72H1370.69z M1412.52,86.95
		c-0.59-0.53-1.11-0.97-1.58-1.32c-0.47-0.35-0.97-0.53-1.49-0.53c-1.46,0-2.49,1.03-3.08,3.08c-1.17,3.46-2.3,6.87-3.38,10.24
		c-1.08,3.37-2.18,6.81-3.3,10.33c-0.12,0.29-0.18,0.56-0.18,0.79c0,0.23,0,0.5,0,0.79c0,2.17,1.14,3.25,3.43,3.25h0.88
		c3.52-0.47,7.03-0.83,10.55-1.1s7.03-0.48,10.55-0.66c1.17-0.12,2.09-0.42,2.77-0.92c0.67-0.5,1.01-1.16,1.01-1.98
		c0-0.76-0.35-1.67-1.05-2.72c-2.46-3.28-4.94-6.52-7.43-9.71C1417.72,93.29,1415.16,90.11,1412.52,86.95z"/>
	<path class="st0" d="M1501.38,156.82c-1.7,0.29-3.22,0.63-4.57,1.01c-1.35,0.38-3.02,0.57-5.01,0.57c-2.17,0-3.84-0.62-5.01-1.85
		c-1.17-1.23-1.76-2.61-1.76-4.13c0-1.23,0.21-2.83,0.62-4.79c0.41-1.96,0.62-3.94,0.62-5.93c-0.41-7.56-0.95-15.04-1.63-22.46
		c-0.67-7.41-1.33-14.19-1.98-20.35c-0.65-6.15-1.2-11.41-1.67-15.78c-0.47-4.36-0.7-7.34-0.7-8.92c0-1.05,0.26-2.04,0.79-2.94
		c0.53-0.91,1.26-1.71,2.2-2.42c0.94-0.7,2.04-1.24,3.3-1.63c1.26-0.38,2.59-0.57,4-0.57c2.75,0,4.78,0.43,6.06,1.27
		c1.29,0.85,2.08,2.21,2.37,4.09c1.64,12.6,2.83,24.16,3.56,34.67c0.73,10.52,1.24,20.38,1.54,29.58c0,1.35,0.37,2.37,1.1,3.08
		c0.73,0.7,1.68,1.05,2.86,1.05c2.34,0,4.72-0.13,7.12-0.4c2.4-0.26,4.8-0.54,7.21-0.83c2.4-0.29,4.79-0.57,7.16-0.83
		s4.67-0.4,6.9-0.4c1.46,0,2.65,0.18,3.56,0.53c0.91,0.35,1.61,0.82,2.11,1.41c0.5,0.59,0.82,1.25,0.97,1.98
		c0.15,0.73,0.22,1.45,0.22,2.15c0,1.11-0.12,2.23-0.35,3.34c-0.23,1.11-0.65,2.12-1.23,3.03c-0.59,0.91-1.38,1.67-2.37,2.29
		c-1,0.62-2.26,0.98-3.78,1.1c-7.21,0.7-13.79,1.23-19.73,1.58C1509.89,155.68,1505.07,156.17,1501.38,156.82z"/>
	<path class="st0" d="M1551.3,129.22c-0.18,0-0.45,0.03-0.83,0.09c-0.38,0.06-0.79,0.12-1.23,0.18c-0.44,0.06-0.87,0.12-1.27,0.18
		c-0.41,0.06-0.73,0.09-0.97,0.09c-1.64,0-3.08-0.69-4.31-2.07c-1.23-1.38-1.85-3.21-1.85-5.49c0-1.52,0.5-2.99,1.49-4.39
		c1-1.41,2.55-2.58,4.66-3.52c0.64-0.29,1.16-0.63,1.54-1.01c0.38-0.38,0.57-0.92,0.57-1.63c0-1.87-0.04-3.88-0.13-6.02
		c-0.09-2.14-0.22-4.64-0.4-7.51c-0.06-0.58-0.25-1.14-0.57-1.67c-0.32-0.53-0.67-1.13-1.05-1.8c-0.38-0.67-0.72-1.42-1.01-2.24
		c-0.29-0.82-0.44-1.85-0.44-3.08c0-1.11,0.16-2.39,0.48-3.82c0.32-1.44,1-2.78,2.02-4.04c1.02-1.26,2.46-2.31,4.31-3.16
		c1.85-0.85,4.26-1.27,7.25-1.27c1.23,0,2.25,0.12,3.08,0.35c0.82,0.23,1.54,0.51,2.15,0.83c0.62,0.32,1.17,0.6,1.67,0.83
		c0.5,0.23,1.01,0.35,1.54,0.35c0.94,0,2.81-0.18,5.63-0.53s6.2-0.85,10.15-1.49c3.96-0.64,8.32-1.38,13.1-2.2
		c4.78-0.82,9.62-1.71,14.55-2.68s9.73-1.95,14.41-2.94c4.69-1,8.93-1.96,12.74-2.9c1.17-0.29,2.2-0.44,3.08-0.44
		c1.23,0,2.21,0.28,2.94,0.83c0.73,0.56,1.27,1.25,1.63,2.07c0.35,0.82,0.57,1.74,0.66,2.77c0.09,1.03,0.13,1.98,0.13,2.86
		c0,1.52-0.51,2.94-1.54,4.26c-1.03,1.32-2.71,2.36-5.05,3.12c-5.8,1.7-11.65,3.18-17.53,4.44c-5.89,1.26-11.82,2.4-17.8,3.43
		c-5.98,1.03-11.98,1.95-18.02,2.77c-6.04,0.82-12.04,1.64-18.02,2.46c-0.82,0.12-1.44,0.43-1.85,0.92
		c-0.41,0.5-0.62,1.16-0.62,1.98v3.6c0,1,0.03,2.02,0.09,3.08c0.06,1.05,0.19,2.02,0.4,2.9c0.21,0.88,0.48,1.6,0.83,2.15
		c0.35,0.56,0.82,0.83,1.41,0.83c1.41,0,3.59-0.29,6.55-0.88c2.96-0.58,6.3-1.3,10.02-2.15c3.72-0.85,7.62-1.79,11.69-2.81
		c4.07-1.02,7.92-1.96,11.56-2.81c3.63-0.85,6.83-1.57,9.58-2.15c2.75-0.58,4.69-0.88,5.8-0.88c1.64,0,2.89,0.6,3.74,1.8
		c0.85,1.2,1.42,2.71,1.71,4.53c0,0.29,0.03,0.56,0.09,0.79c0.06,0.23,0.09,0.5,0.09,0.79c0,1.7-0.51,3.27-1.54,4.7
		c-1.03,1.44-2.86,2.5-5.49,3.21c-0.7,0.23-2.11,0.6-4.22,1.1c-2.11,0.5-4.6,1.08-7.47,1.76c-2.87,0.67-5.98,1.39-9.32,2.15
		c-3.34,0.76-6.62,1.51-9.84,2.24c-3.22,0.73-6.23,1.44-9.01,2.11c-2.78,0.67-5.05,1.22-6.81,1.63c-1.58,0.41-2.54,0.73-2.86,0.97
		c-0.32,0.23-0.48,0.53-0.48,0.88c0.12,1.29,0.78,2.49,1.98,3.6c1.2,1.11,2.72,2.14,4.57,3.08c1.85,0.94,3.92,1.79,6.24,2.55
		c2.31,0.76,4.72,1.39,7.21,1.89c2.49,0.5,4.94,0.89,7.34,1.19c2.4,0.29,4.63,0.44,6.68,0.44c0.88,0,2.14,0,3.78,0
		c1.64,0,3.44-0.04,5.41-0.13c1.96-0.09,3.98-0.22,6.06-0.4c2.08-0.18,3.96-0.42,5.63-0.75c1.67-0.32,3.05-0.73,4.13-1.23
		c1.08-0.5,1.63-1.1,1.63-1.8c0-0.64-0.22-1.32-0.66-2.02s-0.66-1.46-0.66-2.29c0-1.17,0.32-2.33,0.97-3.47
		c0.64-1.14,1.48-2.17,2.5-3.08c1.02-0.91,2.2-1.64,3.52-2.2c1.32-0.56,2.65-0.83,4-0.83c1.7,0,3.25,0.34,4.66,1.01
		c1.41,0.67,2.62,1.55,3.65,2.64c1.02,1.08,1.82,2.33,2.37,3.74c0.56,1.41,0.83,2.84,0.83,4.31c0,3.87-1.42,7.21-4.26,10.02
		c-2.84,2.81-6.55,5.14-11.12,6.99s-9.73,3.22-15.47,4.13c-5.74,0.91-11.51,1.36-17.31,1.36c-6.8,0-13.01-0.45-18.63-1.36
		c-5.63-0.91-10.67-2.36-15.12-4.35c-4.45-1.99-8.29-4.58-11.51-7.78c-3.22-3.19-5.86-7.08-7.91-11.65
		C1552.88,129.9,1552.12,129.22,1551.3,129.22z"/>
</g>
</svg>
