<?xml version="1.0" encoding="utf-8"?>
<!-- Generator: Adobe Illustrator 24.1.1, SVG Export Plug-In . SVG Version: 6.00 Build 0)  -->
<svg version="1.1" id="Livello_1" xmlns="http://www.w3.org/2000/svg" xmlns:xlink="http://www.w3.org/1999/xlink" x="0px" y="0px"
	 viewBox="0 0 3543.3 2054.4" style="enable-background:new 0 0 3543.3 2054.4;" xml:space="preserve">
<style type="text/css">
	.st0{fill:#FFFFFF;}
</style>
<g>
	<path class="st0" d="M1780.1,218.4c64.7-11.4,116.8,4,176.9,26.3c67.2,24.9,103.9,76.3,116.5,146.2c5.9,32.7,9.4,65.8,4.4,98.3
		c-14.3,94.9-60,167.6-152.7,204.4c-29,11.5-58.8,20.5-90.4,21.5c-23.4,5.3-47,4.4-70.5,0.7c-97.3,1.3-176.3-78.9-177.9-160.8
		c-0.5-23.7-25-44.2-48.3-42.2c-20.1,1.8-46,18.6-41.9,50.1c3.9,30.3,10.7,59.5,24.1,87.1c25.6,52.9,64.2,93.2,116.8,120
		c35.8,18.2,74.6,26,114,31.1c32.7-0.8,65.5,0.5,97.9-4.9c19.5-2.3,38.6-5.5,57.7-10.5c43-11.3,83.7-27,119.1-54.4
		c79.4-61.2,120.4-142.8,129.2-241.8c2.9-23.2,0.7-46.6,1.4-69.8c-3.6-4.6-2.1-9.9-2-15c-0.6-3.7-1.1-7.5-1.7-11.2
		c-2.1-8.2-4.1-16.4-4.2-25c-3.3-3-2.8-7.4-3.9-11.1c-26.5-90.6-81.2-155.6-172.2-185.9c-72.9-24.3-148-30.1-224.3-19.7
		c-29.9,3.2-68.3,13.5-89.1,21.6c-37.6,14.6-73,32.8-105.8,56.2c-75.8,54.3-130.8,126.6-178.1,205.7
		c-24.9,41.7-45.6,85.5-67.5,128.7c-0.9,2.1-1.8,4.2-2.6,6.4c-0.4,1.3-0.8,2.5-1.3,3.8c-0.5,0.6-1,1.3-1.6,1.9
		c-2.5,8.8-6.2,17-11,24.8c-5.4,12.3-10.8,24.7-16.2,37c-2.4,8.2-5.5,16-10.3,23.2c-0.6,2.1-0.9,4.4-1.8,6.4
		c-39.7,91.5-75.9,184.5-119.7,274.1c-38.5,78.8-80.4,155-146.4,215.2c-24.3,22.1-50.7,40-83,52.4c0-7.8,0-13.9,0-20
		c-0.5-79.4,0.1-158.9,7.5-238c1.2-12.9,3.4-25.2-1.8-37.9c-8.4-20.5-30.9-31.8-53.9-26.2c-21.2,5.2-36,25.6-32.8,47.1
		c6.1,41.2,7.5,82.7,8.1,124.1c1.1,70.5,0.4,141,0,211.5c-0.3,55.8-1.8,111.5-6.5,167.1c-0.3,15-0.6,30.1-0.9,45.1
		c1.9,17.4,17,23.9,29.2,28.3c31.9,11.7,64-17,60.8-51.5c-4.8-52.7-7.6-105.6-8-158.6c-0.1-8,1.9-10.1,9.8-9.9
		c13.2,0.2,24.9,5.1,36.9,9.1c44,15.1,73.6,47.7,100.1,83.7c18.2,24.7,33.8,51.7,56,72.9c21.8,20.8,47.2,37.3,77.5,44.8
		c24.3,6,47.9,10.1,73.2,3.9c28.6-6.9,33.6-40.4,23.3-60.2c-9.1-17.6-26-23.5-44.5-24.2c-20.4-0.8-38.5-8.4-56-17.4
		c-14.1-7.3-23.4-20.3-34.2-31.5c-9.8-10.3-19.5-20.2-24.6-33.7c-3.6-0.3-6.1-2-7-5.6c-0.4-0.8-0.9-1.6-1.3-2.4
		c-4.7-3.9-8.2-8.7-11-14.1c-4.6-3.3-7.8-7.8-10.6-12.5c-11.4-11.5-22.8-23.1-34.1-34.6c-17.6-11.9-36.3-21.9-55.7-32
		c16.5-14.1,33.4-27.3,48-42.9c58.3-61.9,101.4-134.1,139.8-209.3c61.6-120.4,107.1-248,164.4-370.4
		c33.1-70.7,68.5-139.7,113.1-203.8c17.1-24.4,33.8-49.2,55.9-69.7c10.3-12.3,21.7-23.4,35-32.5l-0.2,0.1c1.1-1.3,2.1-2.9,3.4-3.9
		c35.7-28.6,74.6-51.8,118-66.7C1713.7,230.8,1757.4,222,1780.1,218.4z"/>
	<path class="st0" d="M2324.7,938.4c24.2,18.2,42.8,41.5,59.9,66.1c5.3,9.9,10.7,19.8,16,29.7c1.2,4.8,2.3,9.6,5.7,13.4
		c3.5,10.4,7,20.8,10.5,31.3c2.5,11.3,5,22.7,7.4,34c0.4,2.6,0.7,5.2,1.1,7.7c3.4,39.6,4.9,79.2-0.2,118.8
		c-12,92-50.2,169.4-126.9,224.5c-38.6,27.8-83.8,38.3-129.8,45.8c-68.4,11-133-0.3-194-32.7c-25.6-13.6-46-33.6-63.6-56.4
		c-35.1-45.5-51.1-98.1-56.6-154.5c-6-60.7-0.4-120.2,19.2-178c17.8-52.7,49.2-96.1,90.2-133.7c20.1-18.4,45.3-26.6,67-41.3
		c3.6-2.5,7.8-1.3,11.4-2.9c9-0.9,17.3-3.8,25.5-7.3c0,0,0.8-0.1,0.9-0.1c8.2-1.8,16.5-3.7,24.7-5.5c0.9-0.1,1.7-0.2,2.6-0.3
		c10.7-1.7,21.3-3.3,32-5c1.8-0.1,3.6-0.3,5.4-0.4c21.1-1,42.3-1.9,63.5-0.2c2.5,0.3,5.1,0.5,7.6,0.8c11.1,2.5,22.3,5,33.4,7.5
		c3.5,2.7,8.4-0.5,11.7,3c3.7,3.1,8.1,4.2,12.6,5.3c0.4,0.6,1,0.7,1.6,0.3c4.7,1.7,9.4,3.4,14.1,5.1c4,3.2,8.5,5,13.5,5.6
		c9.8,5.4,19.6,10.9,29.4,16.3l-0.2-0.2C2320.9,937.1,2322.5,938.2,2324.7,938.4z M1931.5,1189.9c-2.5,19.4-1.7,38.7,3.1,57.7
		c1.5,38.4,13.2,73.2,35,104.9c19,27.7,40.1,52.3,74.7,61.1c26,6.6,52.1,11.7,79,12.2c97.7,2,171.7-47.8,204.6-139
		c23.1-64.1,22.7-129.6,5.6-194.6c-14.9-56.5-50.7-94.3-107.7-112.3c-44.4-14-88.8-17.2-134.3-8.7c-24.7,4.6-48.7,11.6-69.1,26.8
		C1958.2,1045.9,1934.8,1113.2,1931.5,1189.9z"/>
	<path class="st0" d="M1358.5,1376.6c4.3-68.1,3-136.3,3.3-204.5c0.3-59.5,4.8-118.6,29.3-173.9c29.3-66.2,81.9-99.9,153.1-106
		c41.7-3.5,83-2.7,121.4,17c11.8,6.1,22.8,13.8,34.1,20.8c22.2,19.5,39.9,42.1,50.8,70c4.5,11.4,5.6,23.9,12.4,34.4
		c20.2,87.9,15.4,177.1,15.4,266.2c0,37.5-1.3,75.2,1.9,112.6c-0.6,22.8,5.7,45.7-1.3,68.3c-2,2.9-3.9,5.8-5.9,8.7
		c-10.7,15.5-25.2,20.3-44.2,14.6c-17.6-5.3-27.6-17.9-27.2-36.4c0.9-40.9,2.3-81.8,3.7-122.7c0.7-21,1.1-21.5-19.1-28.3
		c-19.7-6.6-39.8-12.4-60.9-12.8c-4.3-3.2-9.3-2.7-14.1-2.7c-13.7-0.2-27.5,1.2-41.1-0.1c-31.2-2.9-61.6,2-91.8,8.6
		c-12.4,1.7-23.9,6.4-35.3,11.3c-3.7,1.6-7.3,3.4-7,8.5c0.8,14.6-2,29.3,2.4,43.7c-1.1,29,0.7,58,3.7,86.7
		c2.1,19.8-3.7,33.7-18.6,44.8c-15.2,11.3-31.3,10.9-47.6,2c-8.4-4.6-14.2-12-20.1-19.2c-3.7-24-2.7-48,0-72
		C1360,1403.1,1358.6,1389.8,1358.5,1376.6z M1701.5,1140.6c-1.6-25.7-5.9-51-12.8-75.8c-4.7-17.1-8.9-34.5-22.1-47.6
		c-6.5-10-16.1-16.5-26.2-22.1c-22.1-12.2-46.4-15.4-71.1-14.6c-57.5,1.8-96,13.5-117.3,82.9c-14.9,48.5-16.2,98.1-17.5,147.9
		c-0.7,24.8-0.7,24.8,22.8,16.7c24.5-8.5,50-12.4,75.3-17.1c37.7-1.6,75.2-0.1,112.6,5.5c18.2,5.7,37.3,8.6,54.5,17.2
		c6,3,6-1.4,5.8-4.9C1703.8,1199.4,1706.8,1169.8,1701.5,1140.6z"/>
	<path class="st0" d="M535.8,1416.7c15.6,2,31.2,4.4,46.2,9.4c19.5,14.9,24.5,30.6,18.1,55.5c-18.4,27.7-37.3,32.6-77,26.1
		c-59.5-9.7-100.8-44.6-135.8-90.5c-23-30.1-43.3-62.3-73.8-86.4c-25.3-19.9-53.3-30.4-85-30.7c-7.3-0.1-9.2,7.4-8.3,14.1
		c4.2,30.1,0.7,60.6,4.1,90.8c2.2,19,1.4,38.2,3.3,57.3c2.3,22-10.1,39.4-28.8,45.9c-18.8,6.5-44.1-0.1-55.2-15.9
		c-5.4-7.7-6.1-17.6-5.5-27.1c9.8-147.5,11.9-295.1,6.6-442.8c-1.1-29.8-4.2-59.6-6.9-89.3c-2-21.8,12.7-42.7,34.5-47.6
		c22.3-5.1,45.7,7.4,53.8,27c6.8,16.2,1.2,31.5-0.5,47.3c-5.7,52.4-5.8,105.1-6.1,157.7c-0.1,25,0.2,50-0.1,75
		c-0.2,10.8,4.2,16,15,15.3c91.7-6.1,172.4-43.3,212.3-136.7c10.6-24.8,15.7-51,17.3-77.9c1.3-21.8-0.2-43.6-0.1-65.4
		c0.1-25.9,19.8-43.3,45.2-42.3c25.9,1,46.8,22.1,45.3,46.5c-0.6,9.7-3.5,19.2-4.9,28.9c-7.6,54.9-17.7,109-45,158.3
		c-28.9,52.3-67.4,95-120.5,123.7c-17.7,9.5-18.3,14.4-3.4,27c28,23.6,48.6,53.2,69.8,82.5c8.6,11.9,17.1,24,28.5,33.5
		c5.7,6.3,11.9,12,19.8,15.7l-0.3-0.2C509.1,1410.7,522.1,1414.5,535.8,1416.7z"/>
	<path class="st0" d="M2783.8,1107c1.6-2.3,3.1-4.5,4.7-6.8c21.4-32.1,29.9-68.2,32.5-105.9c1.3-19.1,1.8-38.3,0-57.5
		c-3.2-34.3,21.5-63.9,68.5-46.5c12.8,4.7,25.2,29,21.8,44.3c-7.1,32.1-9.4,65-17.1,97.1c-20.9,86.8-66,156.7-142,205.2
		c-10.8,5.6-21.6,11.3-33.1,17.3c11.9,10.2,22.8,19.6,33.7,29.1c23.1,23,40.8,50.3,60.2,76.2c16.9,22.5,35.6,42.7,63.1,52.6
		c11.7,4.2,23.9,5.9,36,7.3c20.7,2.5,38.3,8.6,46.2,30.2c0.6,8.1,1.3,16.3,2,24.4c-11.5,27.2-25.9,35.7-55.8,35.2
		c-47.1-0.8-86.9-19.4-122.3-48.7c-9.4-7.8-16.8-18-25.1-27.1c-14.3-19.5-28.1-39.3-42.9-58.3c-32.1-41.2-69-74.8-125.5-76.2
		c-8.8-0.2-11.5,2.2-11,11.2c2.9,49.8,2.1,99.9,7.6,149.6c3.1,27.5-16.4,50-42.9,50.5c-26.1,0.5-47.8-19.3-46.5-42.8
		c1.6-28.9,4.3-57.8,5.2-86.8c3.4-107.1,7.2-214.2,2.7-321.2c-1.3-30-2.1-60.3-5.9-90.2c-1.7-13.3-2.9-26.2-2.2-39.5
		c1.3-27.8,22.5-48,47.4-45.1c30.1,3.5,48.6,25.7,43.2,54.2c-9,47.7-7.5,95.9-9.3,144c-1.4,37.9-0.7,75.9-1.4,113.8
		c-0.1,8.4,1.8,12.3,11.1,11.4c47.4-4.6,94-10,134.7-39.2c15.5-11.1,30.9-21.9,44-35.8c3.5-3.7,6.6-7.3,5.5-12.9
		c4.6,0.5,5.4-3.2,6.8-6.3l0.7-0.1c0,0,0.1-0.7,0.1-0.7C2780.5,1111.8,2783.7,1110.8,2783.8,1107z"/>
	<path class="st0" d="M3027.6,906.1c3.9-4.7,7.7-9.4,11.6-14.1c12.2-1.2,23.6-7.7,36.3-5.6c4.4,4.7,11.5,1.8,16.2,5.8
		c2,2.9,5.1,3.7,8.2,3.6c45.6-0.8,91.3,1.4,136.8-3.8c3.6-0.1,7.2-0.2,10.8-0.3c35.8-0.3,71.6,0.1,107.1-5.1
		c1.9-0.2,3.8-0.3,5.7-0.5c3.1,0,6.2-0.2,9.3-0.1c31.5,0,49.6,19.7,46.9,50.9c-0.3,3.5-0.7,7.1-1.1,10.6c-5.1,3.3-3.8,9.7-7.2,14.3
		c-10.1,13.6-22.9,17-38.7,15.9c-38-2.4-75.9-4.8-113.9-6.1c-43.9-1.5-87.9-1.4-131.9-2.7c-9.9-0.3-12.9,2.5-13.1,12.6
		c-0.3,19.5-4.1,38.9-2.3,58.5c-2.9,52-2.9,104.1-3,156.2c0,5.9,0.1,10,8.2,9.9c56.1-1,112.2,1.3,168.1-3.5
		c8.9,0.1,17.9-0.5,26.6,0.5c21.8,2.5,39.5,21.9,38,40.9c-2.1,25.9-17.8,40.4-44,38.7c-60.9-3.8-122-1.8-182.9-3.4
		c-10-0.3-14.1,2-13.5,13.1c2.2,40.9,3.4,81.8,5,122.7c0.2,4.3,0.2,8.4,6.4,7.1c78.9,8.1,157.8,4.1,236.7,0
		c12.6,2.2,24.7-2.3,37.1-3.3c18.9-1.5,34.5,4.2,44.2,21.2c9.7,17.2,10.9,35.3-0.7,51.8c-11,15.7-27,22.4-46.6,19
		c-12.7-2.2-25.6-3.4-38.6-2.9c-27.8-5.1-55.9-1.7-83.8-4.3c-20.6-3.7-41-1.5-61.4,1.5c-24.8,0.3-49.8-1.7-74.5,2.8
		c-17.4-0.4-34.8,0.4-52.1,2.8c-37,4.9-61.2-18.7-54.8-55.4c2.6-15,3.7-30.1,4.4-45.1c4.8-107.9,7.2-215.8,3.3-323.8
		c-0.7-18.7-2-37.4-3.1-56.1c0-27.8-0.1-55.5-4.7-83.1c-0.3-3.7-0.7-7.5-1-11.2c0-2.8,0.1-5.6,0.1-8.4c0.3-1.9,0.6-3.8,1-5.7
		C3026.1,917.6,3026.2,911.6,3027.6,906.1z"/>
	<path class="st0" d="M659.4,1090.5c0.7-50.9-1.9-101.6-6.2-152.3c-2.1-25.3,10.1-44.6,33.4-50.8c21.4-5.8,47.1,6.6,55.8,26.6
		c3.7,8.6,2.9,17.5,2.3,26.4c-2.3,36.5-6.5,72.8-4.9,109.5c-4.5,34.6-3,69.4-3.1,104.1c-0.1,64.6-2.4,129.2,3.1,193.6
		c-0.3,34.3,1.1,68.6,4.7,102.7c0.6,5.3,0.8,10.7,0.8,16c0,28-23,49.2-50.2,46.7c-28.1-2.6-46.9-30.6-42.4-55.1
		c7.8-41.7,6.9-84.3,6.7-126.7c4.4-26.9,3.1-54,3-81.1C662.2,1197,665.1,1143.6,659.4,1090.5z"/>
</g>
<g>
	<path class="st0" d="M142.6,1714.3c0-2.1,0.5-4.2,1.6-6c1.1-1.9,2.6-3.5,4.5-4.8c1.9-1.4,4.2-2.5,6.7-3.3c2.6-0.8,5.3-1.3,8.2-1.3
		c5.6,0,9.7,0.9,12.3,2.7c2.6,1.8,4.2,4.6,4.8,8.4c2,15.9,3.7,30.9,5.1,45s2.5,27.6,3.3,40.5c0.8,12.8,1.4,25.1,1.8,36.9
		c0.4,11.8,0.5,23.1,0.5,34.1c0,6-2.1,10.5-6.4,13.4s-10.4,4.5-18.5,4.5c-3.7,0-6.6-0.9-8.7-2.6c-2.1-1.7-3.1-4.3-3.1-7.6
		c0-20.5-0.6-39.8-1.9-57.7c-1.3-18-2.6-33.9-4.2-47.9c-1.5-14-3-25.6-4.2-35C143.2,1724.2,142.6,1717.8,142.6,1714.3z"/>
	<path class="st0" d="M273.7,1893.8c-3.5,0.6-6.6,1.3-9.3,2.1c-2.8,0.8-6.2,1.2-10.2,1.2c-4.4,0-7.8-1.3-10.2-3.8
		c-2.4-2.5-3.6-5.3-3.6-8.4c0-2.5,0.4-5.8,1.3-9.8c0.8-4,1.3-8,1.3-12.1c-0.8-15.4-1.9-30.6-3.3-45.8c-1.4-15.1-2.7-28.9-4-41.5
		c-1.3-12.5-2.4-23.2-3.4-32.2c-1-8.9-1.4-15-1.4-18.2c0-2.1,0.5-4.2,1.6-6c1.1-1.9,2.6-3.5,4.5-4.9c1.9-1.4,4.2-2.5,6.7-3.3
		c2.6-0.8,5.3-1.2,8.2-1.2c5.6,0,9.7,0.9,12.3,2.6c2.6,1.7,4.2,4.5,4.8,8.3c3.3,25.7,5.8,49.2,7.3,70.6c1.5,21.4,2.5,41.5,3.1,60.3
		c0,2.8,0.8,4.8,2.2,6.3c1.5,1.4,3.4,2.1,5.8,2.1c4.8,0,9.6-0.3,14.5-0.8c4.9-0.5,9.8-1.1,14.7-1.7c4.9-0.6,9.8-1.2,14.6-1.7
		c4.8-0.5,9.5-0.8,14.1-0.8c3,0,5.4,0.4,7.3,1.1c1.9,0.7,3.3,1.7,4.3,2.9c1,1.2,1.7,2.5,2,4c0.3,1.5,0.4,3,0.4,4.4
		c0,2.3-0.2,4.5-0.7,6.8c-0.5,2.3-1.3,4.3-2.5,6.2c-1.2,1.9-2.8,3.4-4.8,4.7c-2,1.3-4.6,2-7.7,2.2c-14.7,1.4-28.1,2.5-40.2,3.2
		C291,1891.4,281.2,1892.4,273.7,1893.8z"/>
	<path class="st0" d="M609.6,1712.2c0,4.7-1.5,9-4.6,13.1c-3,4.1-6.9,8-11.5,11.8c-4.6,3.8-9.6,7.5-15,11.1
		c-5.4,3.6-10.4,7.2-15,10.9c-4.6,3.7-8.4,7.5-11.5,11.3c-3,3.8-4.6,7.9-4.6,12.2c0,3.6,2.5,7,7.5,10.4c5,3.3,12.2,6.7,21.7,10
		c9.4,3.3,20.8,6.8,34.2,10.3c13.4,3.5,28.4,7.3,45.1,11.2c8.4,2.3,12.5,6.5,12.5,12.7c0,2.4-0.6,4.7-1.7,7c-1.1,2.3-2.6,4.3-4.6,6
		c-1.9,1.7-4.1,3.1-6.5,4.2c-2.4,1.1-4.9,1.6-7.4,1.6c-6,0-12.8-0.9-20.3-2.7c-7.6-1.8-15.4-4-23.6-6.6c-8.1-2.6-16.2-5.5-24.3-8.7
		c-8.1-3.2-15.7-6.1-22.8-8.7c-7.1-2.6-13.4-4.8-18.8-6.6s-9.5-2.7-12.3-2.7c-2.1,0-4.2,1-6.2,3s-3.8,4.7-5.4,8.2s-3,7.6-4,12.3
		c-1.1,4.7-1.9,9.9-2.3,15.5c-0.6,6.3-2.8,11-6.7,14.1c-3.9,3-9.2,4.6-16,4.6c-7,0-11.1-3.3-12.2-9.8c-1.8-10-4-20.2-6.5-30.6
		c-2.6-10.4-5.4-20.8-8.4-31.2s-6.3-20.7-9.8-30.8c-3.5-10.1-7.2-19.9-11-29.2c-1-2-1.7-3.9-2.1-5.6c-0.4-1.7-0.6-3.5-0.6-5.3
		c0-1.5,0.5-3,1.4-4.4c1-1.4,2.3-2.6,3.9-3.7c1.7-1.1,3.6-1.9,5.8-2.5c2.2-0.6,4.5-0.9,6.9-0.9c4.9,0,8.8,1,11.6,3
		c2.9,2,5.8,5.1,8.8,9.1c1.4,1.9,2.8,4.4,4.1,7.6c1.3,3.2,2.6,6.5,3.8,10.1c1.2,3.6,2.4,7.2,3.6,10.8c1.2,3.6,2.4,6.9,3.5,9.8
		c1.1,2.9,2.3,5.3,3.4,7.2s2.2,2.8,3.3,2.8c1,0,1.8-0.4,2.4-1.3c0.7-0.8,1.5-2.1,2.4-3.8c6.2-12.9,13-24.7,20.4-35.4
		c7.4-10.7,15-19.8,22.7-27.4c7.8-7.6,15.5-13.5,23.4-17.6c7.8-4.2,15.3-6.3,22.5-6.3c2.9,0,5.5,0.5,8.1,1.5c2.5,1,4.7,2.4,6.5,4.2
		s3.3,3.9,4.4,6.4C609.1,1706.8,609.6,1709.4,609.6,1712.2z"/>
	<path class="st0" d="M646.9,1845.9c-2,0-3.5-1-4.6-3c-1-2-1.5-4.9-1.5-8.6c0-0.6,0-1.3,0-2.1s0.1-2.3,0.4-4.6
		c0.4-8.6,4.6-13.6,12.7-15l4.1-0.4c2.8-0.4,4.9-1.2,6.4-2.6c1.5-1.4,2.7-3.3,3.4-5.8c2-6.8,4.1-13.7,6.1-20.6
		c2-6.9,4.2-13.8,6.4-20.6c1.2-3.8,2.4-7.9,3.7-12.3c1.3-4.4,2.6-8.7,4.1-13c1.5-4.3,3.2-8.5,5.2-12.7s4.2-8,6.7-11.5
		c1.1-1.4,2.6-2.9,4.5-4.5c1.9-1.5,4.1-3,6.5-4.2c2.4-1.3,5.1-2.3,7.9-3c2.8-0.8,5.6-1.2,8.3-1.2c3.6,0,7.1,1.1,10.6,3.4
		c4.7,3.2,9.3,7.1,13.8,11.6c4.5,4.5,9.6,10.3,15.2,17.4c5.6,7,12.1,15.5,19.5,25.5s16.3,22,26.7,36.1c1.5,1.8,3.2,3.1,4.9,4
		c1.7,0.9,3.8,1.3,6.2,1.3h10.2c4.2,0,7.4,1,9.8,3c2.3,2,3.5,4.7,3.5,8.2c0,0.7,0,1.5-0.1,2.5c-0.1,1-0.3,1.9-0.6,2.9l-3.4,10
		c-0.2,1-0.4,1.8-0.5,2.5c-0.1,0.7-0.2,1.4-0.2,2.1c0,2.5,0.8,5.1,2.5,7.7l19.2,26.1c2.1,3.2,3.2,6.3,3.2,9.1
		c0,4.3-2.4,8.1-7.3,11.3l-6.8,4.8c-1.7,1.1-3.3,1.9-4.7,2.5c-1.5,0.6-3,0.9-4.6,0.9c-2.1,0-4.2-0.6-6-1.9c-1.9-1.3-3.6-3-5.3-5.1
		c-5.7-8.1-11.5-16.1-17.3-24s-11.7-15.7-17.6-23.5c-2.8-3.8-6.4-5.7-10.9-5.7c-14.6,0.6-29,1.4-43.3,2.4c-14.3,1-28.6,2.2-42.9,3.7
		c-5.1,0.5-8.4,3.2-9.7,8.2l-8.1,29.5c-2.1,7.9-6.9,11.8-14.3,11.8H666l-5.5-0.7c-4.1-0.4-7.1-1.6-9.2-3.8c-2.1-2.1-3.1-5-3.1-8.4
		c0-0.7,0.1-1.5,0.2-2.3c0.1-0.8,0.3-1.7,0.5-2.7c0.6-2.4,1.2-4.8,1.9-7.3c0.7-2.5,1.3-5,2.1-7.3c0.2-1,0.4-1.8,0.5-2.6
		s0.2-1.5,0.2-2.2c0-3.7-1.4-5.5-4.3-5.5L646.9,1845.9L646.9,1845.9z M732.1,1751.4c-1.2-1.1-2.3-2-3.2-2.7c-1-0.7-2-1.1-3-1.1
		c-3,0-5.1,2.1-6.3,6.3c-2.4,7-4.7,14-6.9,20.9c-2.2,6.9-4.4,13.9-6.7,21c-0.2,0.6-0.4,1.1-0.4,1.6s0,1,0,1.6c0,4.4,2.3,6.6,7,6.6
		h1.8c7.2-1,14.3-1.7,21.5-2.2c7.2-0.6,14.3-1,21.5-1.3c2.4-0.2,4.3-0.9,5.6-1.9c1.4-1,2.1-2.4,2.1-4c0-1.5-0.7-3.4-2.1-5.5
		c-5-6.7-10.1-13.3-15.1-19.8C742.7,1764.3,737.5,1757.8,732.1,1751.4z"/>
	<path class="st0" d="M917.6,1745.8c-2.4,1-4.7,1.4-7,1.4c-5.7,0-9.7-3.4-11.8-10.2c-0.6-1.8-1-3.3-1.2-4.5
		c-0.2-1.2-0.3-2.3-0.3-3.2c0-5.6,3.2-9.8,9.5-12.5c12.5-5,25.3-9.1,38.3-12.2c13-3.1,26.1-4.7,39.4-4.7c6.2,0,12.3,0.7,18.4,2
		s11.4,3.6,16.2,6.8c4.8,3.2,8.7,7.5,11.6,12.9s4.5,12.1,4.5,20.2c0,5.7-1.2,11.2-3.5,16.5c-2.3,5.3-5.4,10.3-9.2,15
		c-3.8,4.8-8.2,9.3-13.1,13.6c-4.9,4.3-9.9,8.2-15,11.8c-5.1,3.6-10.2,6.8-15.2,9.8c-5,2.9-9.6,5.5-13.6,7.6c-3.5,2-5.2,4.1-5.2,6.3
		c0,2.5,1.9,4.5,5.5,5.9c12.8,4.5,25.9,8.8,39.2,12.7c13.4,3.9,26.9,8.4,40.6,13.2c6.4,2.4,9.7,6.1,9.7,11.1c0,2.4-0.7,4.8-2.1,7.3
		c-1.4,2.4-2.9,4.7-4.6,6.7c-3.5,5.1-7.8,7.7-12.9,7.7c-1.8,0-4-0.4-6.6-1.1c-7.8-3-16.1-6.1-25-9.3c-8.9-3.2-18-6.4-27.2-9.6
		c-9.3-3.2-18.4-6.2-27.3-9.1c-8.9-2.9-17.3-5.6-24.9-8c-2.8-0.7-4.6-1.1-5.5-1.1c-1,0-1.7,0.2-2.2,0.6c-0.5,0.4-0.8,1.3-0.8,2.6
		c0,0.4,0.1,0.8,0.2,1.3s0.2,1.1,0.2,1.7c0.4,1.8,0.8,4.2,1.3,7.1c0.5,2.9,1.1,5.9,1.6,9c0.5,3.1,1,6.1,1.3,8.9
		c0.4,2.8,0.5,5.1,0.5,6.9c0,6.7-3.6,11.3-10.9,14l-8.1,2.5c-1.2,0.4-2.3,0.6-3.2,0.8s-2,0.3-3,0.3c-6.6,0-10.4-4.1-11.5-12.2
		c-2.9-21.7-6.5-43.2-11-64.3c-4.5-21.1-9.6-42.2-15.3-63.2c-0.4-1.2-0.6-2.2-0.6-3.1c-0.1-0.9-0.1-1.7-0.1-2.4
		c0-6.3,3.4-10.6,10.2-12.9c2.5-0.8,4.6-1.5,6.2-2c1.6-0.5,2.9-0.9,3.9-1.2c1-0.3,1.8-0.5,2.3-0.6c0.5-0.1,1-0.2,1.5-0.2
		c6.4,0,10.6,3.6,12.5,10.9c2.5,9.3,4.9,18.3,7.1,27c2.2,8.7,4.2,17.3,6,25.8c1,4.2,2.7,6.3,5.2,6.3c0.7,0,1.5-0.1,2.5-0.4
		s2.1-0.8,3.4-1.3c3.8-2,8.4-4.5,13.9-7.5c5.4-3,11.1-6.3,17-9.9c5.9-3.6,11.8-7.5,17.5-11.6s11-8.1,15.6-12.2
		c4.6-4.1,8.3-8.1,11.2-12s4.3-7.6,4.3-11.1c0-2.1-0.3-4.1-1-5.9c-0.7-1.8-1.9-3.3-3.7-4.7c-1.8-1.3-4.2-2.3-7.3-3
		c-3-0.7-6.9-1.1-11.6-1.1c-4.5,0-9.3,0.4-14.2,1.2c-5,0.8-9.9,1.8-14.8,3.1c-4.9,1.3-9.7,2.8-14.5,4.5
		C926.5,1742.3,921.9,1744,917.6,1745.8z"/>
	<path class="st0" d="M1055.3,1845.9c-2,0-3.5-1-4.6-3c-1-2-1.5-4.9-1.5-8.6c0-0.6,0-1.3,0-2.1s0.1-2.3,0.4-4.6
		c0.4-8.6,4.6-13.6,12.7-15l4.1-0.4c2.8-0.4,4.9-1.2,6.4-2.6c1.5-1.4,2.7-3.3,3.4-5.8c2-6.8,4.1-13.7,6.1-20.6
		c2-6.9,4.2-13.8,6.4-20.6c1.2-3.8,2.4-7.9,3.7-12.3c1.3-4.4,2.6-8.7,4.1-13c1.5-4.3,3.2-8.5,5.2-12.7c2-4.2,4.2-8,6.7-11.5
		c1.1-1.4,2.6-2.9,4.5-4.5c1.9-1.5,4.1-3,6.5-4.2c2.4-1.3,5.1-2.3,7.9-3c2.8-0.8,5.6-1.2,8.3-1.2c3.6,0,7.1,1.1,10.6,3.4
		c4.7,3.2,9.3,7.1,13.8,11.6c4.5,4.5,9.6,10.3,15.2,17.4c5.6,7,12.1,15.5,19.5,25.5s16.3,22,26.7,36.1c1.5,1.8,3.2,3.1,4.9,4
		s3.8,1.3,6.2,1.3h10.2c4.2,0,7.4,1,9.8,3c2.3,2,3.5,4.7,3.5,8.2c0,0.7,0,1.5-0.1,2.5c-0.1,1-0.3,1.9-0.6,2.9l-3.4,10
		c-0.2,1-0.4,1.8-0.5,2.5c-0.1,0.7-0.2,1.4-0.2,2.1c0,2.5,0.8,5.1,2.5,7.7l19.2,26.1c2.1,3.2,3.2,6.3,3.2,9.1
		c0,4.3-2.4,8.1-7.3,11.3l-6.8,4.8c-1.7,1.1-3.3,1.9-4.7,2.5c-1.5,0.6-3,0.9-4.6,0.9c-2.1,0-4.2-0.6-6-1.9c-1.9-1.3-3.6-3-5.3-5.1
		c-5.7-8.1-11.5-16.1-17.3-24c-5.8-7.9-11.7-15.7-17.6-23.5c-2.8-3.8-6.4-5.7-10.9-5.7c-14.6,0.6-29,1.4-43.3,2.4
		c-14.3,1-28.6,2.2-42.9,3.7c-5.1,0.5-8.4,3.2-9.7,8.2l-8.1,29.5c-2.1,7.9-6.9,11.8-14.3,11.8h-2.9l-5.5-0.7
		c-4.1-0.4-7.1-1.6-9.2-3.8c-2.1-2.1-3.1-5-3.1-8.4c0-0.7,0.1-1.5,0.2-2.3c0.1-0.8,0.3-1.7,0.5-2.7c0.6-2.4,1.2-4.8,1.9-7.3
		c0.7-2.5,1.3-5,2.1-7.3c0.2-1,0.4-1.8,0.5-2.6c0.1-0.8,0.2-1.5,0.2-2.2c0-3.7-1.4-5.5-4.3-5.5L1055.3,1845.9L1055.3,1845.9z
		 M1140.6,1751.4c-1.2-1.1-2.3-2-3.2-2.7s-2-1.1-3-1.1c-3,0-5.1,2.1-6.3,6.3c-2.4,7-4.7,14-6.9,20.9c-2.2,6.9-4.4,13.9-6.7,21
		c-0.2,0.6-0.4,1.1-0.4,1.6s0,1,0,1.6c0,4.4,2.3,6.6,7,6.6h1.8c7.2-1,14.3-1.7,21.5-2.2c7.2-0.6,14.3-1,21.5-1.3
		c2.4-0.2,4.3-0.9,5.6-1.9c1.4-1,2.1-2.4,2.1-4c0-1.5-0.7-3.4-2.1-5.5c-5-6.7-10.1-13.3-15.1-19.8
		C1151.2,1764.3,1146,1757.8,1140.6,1751.4z"/>
	<path class="st0" d="M1359.8,1904c-13,0-25-2.2-35.9-6.6c-10.9-4.4-20.3-10.6-28.2-18.5s-14-17.4-18.4-28.4
		c-4.4-11-6.6-23.1-6.6-36.3c0-7.2,0.6-14.1,1.9-20.7c1.2-6.6,3-12.8,5.1-18.5c1-2.3,1.4-3.9,1.4-4.8c0-1.2-0.3-2.3-0.9-3.4
		s-1.3-2.2-2-3.4c-0.7-1.2-1.4-2.4-2-3.8c-0.6-1.3-0.9-2.8-0.9-4.5c0-5,2.9-9.9,8.6-14.8s13.3-9.1,22.7-12.9
		c9.4-3.8,20.1-6.8,32-9.1s24.2-3.5,36.7-3.5c15.4,0,29.3,2,41.6,5.9s22.9,9.6,31.5,16.9c8.7,7.3,15.3,16.3,20,26.8
		c4.7,10.5,7,22.3,7,35.5c0,14.7-2.9,28.4-8.8,41.1s-13.9,23.7-24.1,33s-22.2,16.6-36.1,22C1390.7,1901.3,1375.8,1904,1359.8,1904z
		 M1437.5,1806.7c0-9.3-1.6-17.7-4.8-25.1c-3.2-7.4-7.9-13.6-14-18.7c-6.1-5.1-13.6-8.9-22.5-11.6c-8.9-2.7-18.9-4-30.2-4
		c-19.7,0-34.5,5-44.5,15c-10,10-15,24.8-15,44.5c0,9.6,1.5,18.3,4.5,26.2c3,7.9,7.2,14.8,12.5,20.4c5.4,5.7,11.8,10.1,19.3,13.2
		c7.5,3.2,15.7,4.7,24.6,4.7c10.3,0,19.7-1.6,28.3-4.7c8.6-3.2,16-7.6,22.1-13.3c6.2-5.7,11-12.6,14.4-20.5
		C1435.8,1824.9,1437.5,1816.2,1437.5,1806.7z"/>
	<path class="st0" d="M1657.2,1712.2c0,4.7-1.5,9-4.6,13.1c-3,4.1-6.9,8-11.5,11.8c-4.6,3.8-9.6,7.5-15,11.1
		c-5.4,3.6-10.4,7.2-15,10.9c-4.6,3.7-8.4,7.5-11.5,11.3c-3,3.8-4.6,7.9-4.6,12.2c0,3.6,2.5,7,7.5,10.4c5,3.3,12.2,6.7,21.7,10
		c9.4,3.3,20.8,6.8,34.2,10.3c13.4,3.5,28.4,7.3,45.1,11.2c8.4,2.3,12.5,6.5,12.5,12.7c0,2.4-0.6,4.7-1.7,7c-1.1,2.3-2.6,4.3-4.6,6
		c-1.9,1.7-4.1,3.1-6.5,4.2c-2.4,1.1-4.9,1.6-7.4,1.6c-6,0-12.8-0.9-20.3-2.7s-15.4-4-23.6-6.6c-8.1-2.6-16.2-5.5-24.3-8.7
		c-8.1-3.2-15.7-6.1-22.8-8.7c-7.1-2.6-13.4-4.8-18.8-6.6s-9.5-2.7-12.3-2.7c-2.1,0-4.2,1-6.2,3s-3.8,4.7-5.4,8.2s-3,7.6-4,12.3
		c-1.1,4.7-1.9,9.9-2.3,15.5c-0.6,6.3-2.8,11-6.7,14.1c-3.9,3-9.2,4.6-16,4.6c-7,0-11.1-3.3-12.2-9.8c-1.8-10-4-20.2-6.5-30.6
		c-2.6-10.4-5.4-20.8-8.4-31.2c-3-10.4-6.3-20.7-9.8-30.8c-3.5-10.1-7.2-19.9-11-29.2c-1-2-1.7-3.9-2.1-5.6
		c-0.4-1.7-0.6-3.5-0.6-5.3c0-1.5,0.5-3,1.4-4.4s2.3-2.6,3.9-3.7c1.7-1.1,3.6-1.9,5.8-2.5c2.2-0.6,4.5-0.9,6.9-0.9
		c4.9,0,8.8,1,11.6,3c2.9,2,5.8,5.1,8.8,9.1c1.4,1.9,2.8,4.4,4.1,7.6c1.3,3.2,2.6,6.5,3.8,10.1c1.2,3.6,2.4,7.2,3.6,10.8
		c1.2,3.6,2.4,6.9,3.5,9.8c1.1,2.9,2.3,5.3,3.4,7.2s2.2,2.8,3.3,2.8c1,0,1.8-0.4,2.4-1.3c0.7-0.8,1.5-2.1,2.4-3.8
		c6.2-12.9,13-24.7,20.4-35.4c7.4-10.7,15-19.8,22.7-27.4c7.8-7.6,15.5-13.5,23.4-17.6s15.3-6.3,22.5-6.3c2.9,0,5.5,0.5,8.1,1.5
		c2.5,1,4.7,2.4,6.5,4.2c1.9,1.8,3.3,3.9,4.4,6.4C1656.7,1706.8,1657.2,1709.4,1657.2,1712.2z"/>
	<path class="st0" d="M1711.9,1837.5c-0.4,0-0.9,0.1-1.7,0.2c-0.8,0.1-1.6,0.2-2.5,0.4c-0.9,0.1-1.8,0.2-2.6,0.4
		c-0.8,0.1-1.5,0.2-2,0.2c-3.3,0-6.3-1.4-8.8-4.2c-2.5-2.8-3.8-6.5-3.8-11.2c0-3.1,1-6.1,3-8.9c2-2.9,5.2-5.3,9.5-7.2
		c1.3-0.6,2.4-1.3,3.1-2.1c0.8-0.8,1.2-1.9,1.2-3.3c0-3.8-0.1-7.9-0.3-12.3c-0.2-4.4-0.4-9.5-0.8-15.3c-0.1-1.2-0.5-2.3-1.2-3.4
		c-0.7-1.1-1.4-2.3-2.1-3.7s-1.5-2.9-2.1-4.6c-0.6-1.7-0.9-3.8-0.9-6.3c0-2.3,0.3-4.9,1-7.8c0.7-2.9,2-5.7,4.1-8.2
		c2.1-2.6,5-4.7,8.8-6.4c3.8-1.7,8.7-2.6,14.8-2.6c2.5,0,4.6,0.2,6.3,0.7c1.7,0.5,3.1,1,4.4,1.7c1.3,0.7,2.4,1.2,3.4,1.7
		c1,0.5,2.1,0.7,3.1,0.7c1.9,0,5.7-0.4,11.5-1.1c5.7-0.7,12.6-1.7,20.7-3c8.1-1.3,17-2.8,26.7-4.5c9.7-1.7,19.6-3.5,29.6-5.5
		c10-2,19.8-4,29.4-6c9.6-2,18.2-4,26-5.9c2.4-0.6,4.5-0.9,6.3-0.9c2.5,0,4.5,0.6,6,1.7c1.5,1.1,2.6,2.5,3.3,4.2
		c0.7,1.7,1.2,3.5,1.3,5.6s0.3,4,0.3,5.8c0,3.1-1,6-3.1,8.7c-2.1,2.7-5.5,4.8-10.3,6.4c-11.8,3.5-23.7,6.5-35.7,9
		c-12,2.6-24.1,4.9-36.3,7c-12.2,2.1-24.4,4-36.7,5.6c-12.3,1.7-24.5,3.3-36.7,5c-1.7,0.2-2.9,0.9-3.8,1.9c-0.8,1-1.3,2.4-1.3,4v7.3
		c0,2,0.1,4.1,0.2,6.3c0.1,2.1,0.4,4.1,0.8,5.9c0.4,1.8,1,3.3,1.7,4.4c0.7,1.1,1.7,1.7,2.9,1.7c2.9,0,7.3-0.6,13.3-1.8
		c6-1.2,12.8-2.6,20.4-4.4c7.6-1.7,15.5-3.6,23.8-5.7c8.3-2.1,16.1-4,23.6-5.7c7.4-1.7,13.9-3.2,19.5-4.4c5.6-1.2,9.6-1.8,11.8-1.8
		c3.3,0,5.9,1.2,7.6,3.7c1.7,2.4,2.9,5.5,3.5,9.2c0,0.6,0.1,1.1,0.2,1.6c0.1,0.5,0.2,1,0.2,1.6c0,3.5-1,6.7-3.1,9.6
		c-2.1,2.9-5.8,5.1-11.2,6.5c-1.4,0.5-4.3,1.2-8.6,2.2s-9.4,2.2-15.2,3.6c-5.8,1.4-12.2,2.8-19,4.4c-6.8,1.5-13.5,3.1-20,4.6
		c-6.6,1.5-12.7,2.9-18.4,4.3c-5.7,1.4-10.3,2.5-13.9,3.3c-3.2,0.8-5.2,1.5-5.8,2c-0.7,0.5-1,1.1-1,1.8c0.2,2.6,1.6,5.1,4,7.3
		c2.4,2.3,5.5,4.4,9.3,6.3c3.8,1.9,8,3.6,12.7,5.2c4.7,1.5,9.6,2.8,14.7,3.9c5.1,1,10.1,1.8,15,2.4c4.9,0.6,9.4,0.9,13.6,0.9
		c1.8,0,4.4,0,7.7,0c3.3,0,7-0.1,11-0.3c4-0.2,8.1-0.4,12.3-0.8c4.2-0.4,8.1-0.9,11.5-1.5c3.4-0.7,6.2-1.5,8.4-2.5
		c2.2-1,3.3-2.2,3.3-3.7c0-1.3-0.4-2.7-1.3-4.1c-0.9-1.4-1.3-3-1.3-4.7c0-2.4,0.7-4.7,2-7.1c1.3-2.3,3-4.4,5.1-6.3
		c2.1-1.9,4.5-3.3,7.2-4.5c2.7-1.1,5.4-1.7,8.2-1.7c3.5,0,6.6,0.7,9.5,2.1c2.9,1.4,5.3,3.2,7.4,5.4c2.1,2.2,3.7,4.7,4.8,7.6
		c1.1,2.9,1.7,5.8,1.7,8.8c0,7.9-2.9,14.7-8.7,20.4c-5.8,5.7-13.3,10.5-22.7,14.2s-19.8,6.6-31.5,8.4c-11.7,1.9-23.5,2.8-35.3,2.8
		c-13.9,0-26.5-0.9-38-2.8c-11.5-1.9-21.7-4.8-30.8-8.9c-9.1-4.1-16.9-9.3-23.5-15.9c-6.6-6.5-11.9-14.4-16.1-23.7
		C1715.1,1838.9,1713.5,1837.5,1711.9,1837.5z"/>
	<path class="st0" d="M2033.5,1813c-5.7-8.1-11.1-15.8-16.2-23s-9.5-14-13.3-20.2c-3.8-6.3-6.8-12-9-17.3c-2.2-5.3-3.3-10-3.3-14.3
		c0-2.1,0.9-4.5,2.8-7.1c1.9-2.6,4-5,6.5-7.2c2.5-2.2,5.1-4.1,7.8-5.5c2.7-1.5,4.9-2.2,6.7-2.2c4.3,0,8,2.7,11.1,8.1
		c1.3,2.5,3.3,6.2,6,11c2.7,4.8,5.8,10.3,9.4,16.5c3.6,6.2,7.6,12.7,11.9,19.7c4.4,7,8.8,13.9,13.4,20.9c4.6,6.9,9.2,13.6,13.8,20
		c4.6,6.4,9,12,13.2,16.9c4.2,4.9,8.2,8.8,11.8,11.7c3.6,2.9,6.8,4.4,9.4,4.4c3.5,0,6.6-2.4,9.5-7.2c2.9-4.8,5.5-11,8-18.8
		c2.4-7.8,4.6-16.6,6.5-26.4c1.9-9.8,3.6-19.8,5.1-30s2.8-20,3.9-29.5c1.1-9.5,2-17.8,2.7-25c0.4-3.8,1.4-6.7,3.2-8.7
		c1.8-2,4.1-3,7-3c2.5,0,5.3,0.5,8.2,1.6c3,1.1,5.8,2.5,8.4,4.4c2.6,1.9,4.8,4,6.5,6.4c1.7,2.4,2.6,5.1,2.6,8
		c0,4.4-0.4,9.6-1.2,15.6c-0.8,6-1.7,12.3-2.9,18.9c-1.1,6.6-2.4,13.4-3.9,20.2c-1.4,6.9-2.9,13.3-4.3,19.4c-1,4.3-2.2,9.6-3.9,16
		c-1.6,6.4-3.6,13.1-6,20.2c-2.4,7.1-5.2,14.2-8.4,21.3c-3.2,7.1-6.9,13.5-11.1,19.2c-4.2,5.7-8.9,10.3-14.1,13.8s-11,5.3-17.5,5.3
		c-4.7,0-9.5-1.3-14.5-3.9c-5-2.6-10-5.9-15-10.1c-5-4.2-10-8.9-14.9-14.2c-4.9-5.3-9.6-10.7-14-16.2c-4.4-5.5-8.5-10.8-12.3-16
		C2039.5,1821.5,2036.2,1816.9,2033.5,1813z"/>
	<path class="st0" d="M2220.8,1714.3c0-2.1,0.5-4.2,1.6-6c1.1-1.9,2.6-3.5,4.5-4.8c1.9-1.4,4.2-2.5,6.7-3.3c2.6-0.8,5.3-1.3,8.2-1.3
		c5.6,0,9.7,0.9,12.3,2.7c2.6,1.8,4.2,4.6,4.8,8.4c2,15.9,3.7,30.9,5.1,45s2.5,27.6,3.3,40.5c0.8,12.8,1.4,25.1,1.8,36.9
		c0.4,11.8,0.5,23.1,0.5,34.1c0,6-2.1,10.5-6.4,13.4c-4.2,3-10.4,4.5-18.5,4.5c-3.7,0-6.6-0.9-8.7-2.6c-2.1-1.7-3.1-4.3-3.1-7.6
		c0-20.5-0.6-39.8-1.9-57.7c-1.3-18-2.6-33.9-4.2-47.9c-1.5-14-3-25.6-4.2-35C2221.4,1724.2,2220.8,1717.8,2220.8,1714.3z"/>
	<path class="st0" d="M2356.3,1745.8c-2.4,1-4.7,1.4-7,1.4c-5.7,0-9.7-3.4-11.8-10.2c-0.6-1.8-1-3.3-1.2-4.5
		c-0.2-1.2-0.3-2.3-0.3-3.2c0-5.6,3.2-9.8,9.5-12.5c12.5-5,25.3-9.1,38.3-12.2c13-3.1,26.1-4.7,39.4-4.7c6.2,0,12.3,0.7,18.4,2
		s11.4,3.6,16.2,6.8c4.8,3.2,8.7,7.5,11.6,12.9c3,5.4,4.5,12.1,4.5,20.2c0,5.7-1.2,11.2-3.5,16.5c-2.3,5.3-5.4,10.3-9.2,15
		c-3.8,4.8-8.2,9.3-13.1,13.6c-4.9,4.3-9.9,8.2-15,11.8c-5.1,3.6-10.2,6.8-15.2,9.8c-5,2.9-9.6,5.5-13.6,7.6c-3.5,2-5.2,4.1-5.2,6.3
		c0,2.5,1.9,4.5,5.5,5.9c12.8,4.5,25.9,8.8,39.2,12.7c13.4,3.9,26.9,8.4,40.6,13.2c6.4,2.4,9.7,6.1,9.7,11.1c0,2.4-0.7,4.8-2.1,7.3
		c-1.4,2.4-2.9,4.7-4.6,6.7c-3.5,5.1-7.8,7.7-12.9,7.7c-1.8,0-4-0.4-6.6-1.1c-7.8-3-16.1-6.1-25-9.3c-8.9-3.2-18-6.4-27.2-9.6
		c-9.3-3.2-18.4-6.2-27.3-9.1c-8.9-2.9-17.3-5.6-24.9-8c-2.8-0.7-4.6-1.1-5.5-1.1c-1,0-1.7,0.2-2.2,0.6c-0.5,0.4-0.8,1.3-0.8,2.6
		c0,0.4,0.1,0.8,0.2,1.3s0.2,1.1,0.2,1.7c0.4,1.8,0.8,4.2,1.3,7.1c0.5,2.9,1.1,5.9,1.6,9c0.5,3.1,1,6.1,1.3,8.9
		c0.4,2.8,0.5,5.1,0.5,6.9c0,6.7-3.6,11.3-10.9,14l-8.1,2.5c-1.2,0.4-2.3,0.6-3.2,0.8s-2,0.3-3,0.3c-6.6,0-10.4-4.1-11.5-12.2
		c-2.9-21.7-6.5-43.2-11-64.3s-9.6-42.2-15.3-63.2c-0.4-1.2-0.6-2.2-0.6-3.1c-0.1-0.9-0.1-1.7-0.1-2.4c0-6.3,3.4-10.6,10.2-12.9
		c2.5-0.8,4.6-1.5,6.2-2c1.6-0.5,2.9-0.9,3.9-1.2c1-0.3,1.8-0.5,2.3-0.6c0.5-0.1,1-0.2,1.5-0.2c6.4,0,10.6,3.6,12.5,10.9
		c2.5,9.3,4.9,18.3,7.1,27c2.2,8.7,4.2,17.3,6,25.8c1,4.2,2.7,6.3,5.2,6.3c0.7,0,1.5-0.1,2.5-0.4s2.1-0.8,3.4-1.3
		c3.8-2,8.4-4.5,13.9-7.5c5.4-3,11.1-6.3,17-9.9c5.9-3.6,11.8-7.5,17.5-11.6c5.8-4.1,11-8.1,15.6-12.2c4.6-4.1,8.3-8.1,11.2-12
		s4.3-7.6,4.3-11.1c0-2.1-0.3-4.1-1-5.9c-0.7-1.8-1.9-3.3-3.7-4.7c-1.8-1.3-4.2-2.3-7.3-3s-6.9-1.1-11.6-1.1
		c-4.5,0-9.3,0.4-14.2,1.2c-5,0.8-9.9,1.8-14.8,3.1c-4.9,1.3-9.7,2.8-14.5,4.5C2365.2,1742.3,2360.6,1744,2356.3,1745.8z"/>
	<path class="st0" d="M2529,1732.8c-1,0-2.8,0.2-5.5,0.6c-2.7,0.4-5.8,0.9-9.4,1.5c-3.6,0.6-7.3,1.3-11.3,2.1
		c-3.9,0.8-7.6,1.5-11.1,2.1c-3.5,0.6-6.5,1.1-9,1.5c-2.6,0.4-4.3,0.6-5.1,0.6c-8,0-12-4.2-12-12.5c0-2.3,0.2-4.5,0.6-6.7
		c0.4-2.2,1.2-4.2,2.2-6.1c1.1-1.9,2.5-3.4,4.3-4.7c1.8-1.3,4.1-2.2,6.8-2.7c14-2.1,27.9-4.4,41.7-6.8c13.9-2.4,27.8-4.9,41.9-7.5
		c3.1-0.6,5.9-1.2,8.4-1.7c2.5-0.5,5.3-1.3,8.4-2.2c3.3-1,7-1.9,10.9-2.8c3.9-0.9,7.9-1.7,11.9-2.4c4-0.7,7.9-1.3,11.6-1.8
		c3.8-0.5,7.2-0.7,10.3-0.7c3.8,0,6.7,1.2,8.7,3.7c2,2.4,3,5.9,3,10.3c0,2.3-0.2,4.4-0.5,6.5c-0.4,2.1-1,4-2,5.6s-2.3,3-3.9,4.1
		c-1.7,1.1-3.8,1.7-6.4,2c-6.8,1-14.1,2.1-21.8,3.5c-7.8,1.4-14.5,2.9-20.2,4.6c-2.4,0.7-4.2,1.9-5.4,3.5c-1.2,1.6-2,3.6-2.3,6
		c-0.4,2.3-0.6,4.6-0.6,6.9s-0.1,4.6-0.1,6.7c0,5,0.2,10,0.6,15c0.4,5,0.8,10,1.2,15c1.1,17.2,2.7,34.2,4.9,51
		c2.2,16.8,4.6,33.8,7.3,51c0.2,0.6,0.4,1.2,0.4,1.8c0,0.6,0,1.2,0,1.8c0,6.6-3.7,11.2-11.1,14l-8.1,2.5c-2.1,0.7-4.2,1.1-6.3,1.1
		c-3.1,0-5.6-1-7.5-3c-1.9-2-3.2-4.9-3.8-8.7c-3.3-20.5-6.3-41-8.8-61.3c-2.5-20.4-4.1-40.9-4.8-61.5c-0.2-3.3-0.4-7-0.5-10.9
		c-0.1-3.9-0.2-8-0.2-12.2C2536.3,1735.7,2533.9,1732.8,2529,1732.8z"/>
	<path class="st0" d="M2640.7,1734.2c0.7-4.2,2.8-7.3,6.1-9.4c3.3-2.1,8.9-3.1,16.6-3.1c4.2,0,7.4,1.1,9.8,3.2s3.5,5.1,3.5,8.9
		c0,0.6-0.1,1.1-0.2,1.6c-0.1,0.5-0.2,1-0.2,1.6c-1.3,7.8-2.4,15.8-3.2,24.2c-0.8,8.4-1.3,16.8-1.3,25.4c0,11.1,1,21.6,3,31.4
		c2,9.8,5.5,18.4,10.6,25.8c5.1,7.3,12,13.1,20.8,17.4c8.8,4.2,20,6.4,33.6,6.4c7.6,0,14.4-1.4,20.2-4.1s10.7-6.5,14.6-11.4
		c3.9-4.8,6.8-10.5,8.8-17.1c2-6.6,3-13.7,3-21.3s-0.8-15.2-2.4-22.6s-3.8-14.7-6.4-21.9c-2.7-7.2-5.8-14.3-9.3-21.4
		c-3.5-7-7.3-14.1-11.2-21.3c-1.7-3.2-2.5-6.2-2.5-8.8c0-4.7,2.4-8.6,7.3-11.8l7.3-4.8c3.2-2.1,6.3-3.2,9.1-3.2
		c4.4,0,8.1,2.7,11.1,8.1c4.5,8,8.9,16.1,13.1,24.3c4.2,8.2,7.8,16.6,11,25.2c3.2,8.6,5.7,17.5,7.5,26.6c1.9,9.1,2.8,18.5,2.8,28.2
		c0,13.5-2.2,25.8-6.7,36.9s-10.8,20.6-19.1,28.6c-8.2,7.9-18.1,14.1-29.6,18.4c-11.5,4.4-24.3,6.5-38.4,6.5
		c-15.3,0-28.9-2.6-40.8-8c-11.9-5.3-21.9-12.7-30-22c-8.1-9.4-14.3-20.5-18.4-33.3c-4.2-12.8-6.3-26.8-6.3-41.8
		c0-10.5,0.6-21,1.9-31.6C2637.5,1753.3,2639,1743.4,2640.7,1734.2z"/>
	<path class="st0" d="M2846.8,1845.9c-2,0-3.5-1-4.6-3c-1-2-1.5-4.9-1.5-8.6c0-0.6,0-1.3,0-2.1s0.1-2.3,0.4-4.6
		c0.4-8.6,4.6-13.6,12.7-15l4.1-0.4c2.8-0.4,4.9-1.2,6.4-2.6c1.5-1.4,2.7-3.3,3.4-5.8c2-6.8,4.1-13.7,6.1-20.6
		c2-6.9,4.2-13.8,6.4-20.6c1.2-3.8,2.4-7.9,3.7-12.3c1.3-4.4,2.6-8.7,4.1-13c1.5-4.3,3.2-8.5,5.2-12.7c2-4.2,4.2-8,6.7-11.5
		c1.1-1.4,2.6-2.9,4.5-4.5c1.9-1.5,4.1-3,6.5-4.2c2.4-1.3,5.1-2.3,7.9-3c2.8-0.8,5.6-1.2,8.3-1.2c3.6,0,7.1,1.1,10.6,3.4
		c4.7,3.2,9.3,7.1,13.8,11.6c4.5,4.5,9.6,10.3,15.2,17.4c5.6,7,12.1,15.5,19.5,25.5c7.4,10,16.3,22,26.7,36.1c1.5,1.8,3.2,3.1,4.9,4
		s3.8,1.3,6.2,1.3h10.2c4.2,0,7.4,1,9.8,3c2.3,2,3.5,4.7,3.5,8.2c0,0.7,0,1.5-0.1,2.5c-0.1,1-0.3,1.9-0.6,2.9l-3.4,10
		c-0.2,1-0.4,1.8-0.5,2.5c-0.1,0.7-0.2,1.4-0.2,2.1c0,2.5,0.8,5.1,2.5,7.7l19.2,26.1c2.1,3.2,3.2,6.3,3.2,9.1
		c0,4.3-2.4,8.1-7.3,11.3l-6.8,4.8c-1.7,1.1-3.3,1.9-4.7,2.5c-1.5,0.6-3,0.9-4.6,0.9c-2.1,0-4.2-0.6-6-1.9c-1.9-1.3-3.6-3-5.3-5.1
		c-5.7-8.1-11.5-16.1-17.3-24s-11.7-15.7-17.6-23.5c-2.8-3.8-6.4-5.7-10.9-5.7c-14.6,0.6-29,1.4-43.3,2.4c-14.3,1-28.6,2.2-42.9,3.7
		c-5.1,0.5-8.4,3.2-9.7,8.2l-8.1,29.5c-2.1,7.9-6.9,11.8-14.3,11.8h-2.9l-5.5-0.7c-4.1-0.4-7.1-1.6-9.2-3.8c-2.1-2.1-3.1-5-3.1-8.4
		c0-0.7,0.1-1.5,0.2-2.3c0.1-0.8,0.3-1.7,0.5-2.7c0.6-2.4,1.2-4.8,1.9-7.3c0.7-2.5,1.3-5,2.1-7.3c0.2-1,0.4-1.8,0.5-2.6
		c0.1-0.8,0.2-1.5,0.2-2.2c0-3.7-1.4-5.5-4.3-5.5L2846.8,1845.9L2846.8,1845.9z M2932.1,1751.4c-1.2-1.1-2.3-2-3.2-2.7s-2-1.1-3-1.1
		c-3,0-5.1,2.1-6.3,6.3c-2.4,7-4.7,14-6.9,20.9s-4.4,13.9-6.7,21c-0.2,0.6-0.4,1.1-0.4,1.6s0,1,0,1.6c0,4.4,2.3,6.6,7,6.6h1.8
		c7.2-1,14.3-1.7,21.5-2.2c7.2-0.6,14.3-1,21.5-1.3c2.4-0.2,4.3-0.9,5.6-1.9c1.4-1,2.1-2.4,2.1-4c0-1.5-0.7-3.4-2.1-5.5
		c-5-6.7-10.1-13.3-15.1-19.8C2942.7,1764.3,2937.4,1757.8,2932.1,1751.4z"/>
	<path class="st0" d="M3113.1,1893.8c-3.5,0.6-6.6,1.3-9.3,2.1s-6.2,1.2-10.2,1.2c-4.4,0-7.8-1.3-10.2-3.8s-3.6-5.3-3.6-8.4
		c0-2.5,0.4-5.8,1.3-9.8c0.8-4,1.3-8,1.3-12.1c-0.8-15.4-1.9-30.6-3.3-45.8c-1.4-15.1-2.7-28.9-4-41.5c-1.3-12.5-2.4-23.2-3.4-32.2
		c-1-8.9-1.4-15-1.4-18.2c0-2.1,0.5-4.2,1.6-6c1.1-1.9,2.6-3.5,4.5-4.9c1.9-1.4,4.2-2.5,6.7-3.3c2.6-0.8,5.3-1.2,8.1-1.2
		c5.6,0,9.7,0.9,12.3,2.6c2.6,1.7,4.2,4.5,4.8,8.3c3.3,25.7,5.8,49.2,7.3,70.6c1.5,21.4,2.5,41.5,3.1,60.3c0,2.8,0.8,4.8,2.2,6.3
		c1.5,1.4,3.4,2.1,5.8,2.1c4.8,0,9.6-0.3,14.5-0.8c4.9-0.5,9.8-1.1,14.7-1.7c4.9-0.6,9.8-1.2,14.6-1.7c4.8-0.5,9.5-0.8,14.1-0.8
		c3,0,5.4,0.4,7.3,1.1c1.9,0.7,3.3,1.7,4.3,2.9c1,1.2,1.7,2.5,2,4c0.3,1.5,0.4,3,0.4,4.4c0,2.3-0.2,4.5-0.7,6.8
		c-0.5,2.3-1.3,4.3-2.5,6.2c-1.2,1.9-2.8,3.4-4.8,4.7c-2,1.3-4.6,2-7.7,2.2c-14.7,1.4-28.1,2.5-40.2,3.2
		C3130.5,1891.4,3120.6,1892.4,3113.1,1893.8z"/>
	<path class="st0" d="M3214.8,1837.5c-0.4,0-0.9,0.1-1.7,0.2c-0.8,0.1-1.6,0.2-2.5,0.4c-0.9,0.1-1.8,0.2-2.6,0.4
		c-0.8,0.1-1.5,0.2-2,0.2c-3.3,0-6.3-1.4-8.8-4.2c-2.5-2.8-3.8-6.5-3.8-11.2c0-3.1,1-6.1,3-8.9c2-2.9,5.2-5.3,9.5-7.2
		c1.3-0.6,2.4-1.3,3.1-2.1c0.8-0.8,1.2-1.9,1.2-3.3c0-3.8-0.1-7.9-0.3-12.3c-0.2-4.4-0.4-9.5-0.8-15.3c-0.1-1.2-0.5-2.3-1.2-3.4
		s-1.4-2.3-2.1-3.7c-0.8-1.4-1.5-2.9-2.1-4.6c-0.6-1.7-0.9-3.8-0.9-6.3c0-2.3,0.3-4.9,1-7.8c0.7-2.9,2-5.7,4.1-8.2s5-4.7,8.8-6.4
		c3.8-1.7,8.7-2.6,14.8-2.6c2.5,0,4.6,0.2,6.3,0.7c1.7,0.5,3.1,1,4.4,1.7c1.3,0.7,2.4,1.2,3.4,1.7c1,0.5,2.1,0.7,3.1,0.7
		c1.9,0,5.7-0.4,11.5-1.1s12.6-1.7,20.7-3c8.1-1.3,17-2.8,26.7-4.5c9.7-1.7,19.6-3.5,29.6-5.5c10-2,19.8-4,29.4-6
		c9.6-2,18.2-4,26-5.9c2.4-0.6,4.5-0.9,6.3-0.9c2.5,0,4.5,0.6,6,1.7c1.5,1.1,2.6,2.5,3.3,4.2c0.7,1.7,1.2,3.5,1.3,5.6
		c0.2,2.1,0.3,4,0.3,5.8c0,3.1-1,6-3.1,8.7c-2.1,2.7-5.5,4.8-10.3,6.4c-11.8,3.5-23.7,6.5-35.7,9c-12,2.6-24.1,4.9-36.3,7
		c-12.2,2.1-24.4,4-36.7,5.6c-12.3,1.7-24.5,3.3-36.7,5c-1.7,0.2-2.9,0.9-3.8,1.9c-0.8,1-1.3,2.4-1.3,4v7.3c0,2,0.1,4.1,0.2,6.3
		c0.1,2.1,0.4,4.1,0.8,5.9c0.4,1.8,1,3.3,1.7,4.4c0.7,1.1,1.7,1.7,2.9,1.7c2.9,0,7.3-0.6,13.3-1.8c6-1.2,12.8-2.6,20.4-4.4
		c7.6-1.7,15.5-3.6,23.8-5.7s16.1-4,23.6-5.7c7.4-1.7,13.9-3.2,19.5-4.4s9.6-1.8,11.8-1.8c3.3,0,5.9,1.2,7.6,3.7
		c1.7,2.4,2.9,5.5,3.5,9.2c0,0.6,0.1,1.1,0.2,1.6c0.1,0.5,0.2,1,0.2,1.6c0,3.5-1,6.7-3.1,9.6c-2.1,2.9-5.8,5.1-11.2,6.5
		c-1.4,0.5-4.3,1.2-8.6,2.2s-9.4,2.2-15.2,3.6c-5.8,1.4-12.2,2.8-19,4.4c-6.8,1.5-13.5,3.1-20,4.6c-6.6,1.5-12.7,2.9-18.4,4.3
		c-5.7,1.4-10.3,2.5-13.9,3.3c-3.2,0.8-5.2,1.5-5.8,2c-0.7,0.5-1,1.1-1,1.8c0.2,2.6,1.6,5.1,4,7.3c2.4,2.3,5.5,4.4,9.3,6.3
		c3.8,1.9,8,3.6,12.7,5.2c4.7,1.5,9.6,2.8,14.7,3.9c5.1,1,10.1,1.8,15,2.4c4.9,0.6,9.4,0.9,13.6,0.9c1.8,0,4.4,0,7.7,0s7-0.1,11-0.3
		c4-0.2,8.1-0.4,12.3-0.8c4.2-0.4,8.1-0.9,11.5-1.5c3.4-0.7,6.2-1.5,8.4-2.5c2.2-1,3.3-2.2,3.3-3.7c0-1.3-0.4-2.7-1.3-4.1
		c-0.9-1.4-1.3-3-1.3-4.7c0-2.4,0.7-4.7,2-7.1c1.3-2.3,3-4.4,5.1-6.3s4.5-3.3,7.2-4.5c2.7-1.1,5.4-1.7,8.1-1.7
		c3.5,0,6.6,0.7,9.5,2.1s5.3,3.2,7.4,5.4c2.1,2.2,3.7,4.7,4.8,7.6c1.1,2.9,1.7,5.8,1.7,8.8c0,7.9-2.9,14.7-8.7,20.4
		s-13.3,10.5-22.7,14.2s-19.8,6.6-31.5,8.4c-11.7,1.9-23.5,2.8-35.3,2.8c-13.9,0-26.5-0.9-38-2.8c-11.5-1.9-21.7-4.8-30.8-8.9
		c-9.1-4.1-16.9-9.3-23.5-15.9c-6.6-6.5-11.9-14.4-16.1-23.7C3218.1,1838.9,3216.5,1837.5,3214.8,1837.5z"/>
</g>
</svg>
